<?xml version="1.0" encoding="UTF-8" standalone="no"?>
<!-- Created with Inkscape (http://www.inkscape.org/) -->

<svg
   xmlns:dc="http://purl.org/dc/elements/1.1/"
   xmlns:cc="http://creativecommons.org/ns#"
   xmlns:rdf="http://www.w3.org/1999/02/22-rdf-syntax-ns#"
   xmlns:svg="http://www.w3.org/2000/svg"
   xmlns="http://www.w3.org/2000/svg"
   xmlns:sodipodi="http://sodipodi.sourceforge.net/DTD/sodipodi-0.dtd"
   xmlns:inkscape="http://www.inkscape.org/namespaces/inkscape"
   width="63.526089mm"
   height="50.147762mm"
   viewBox="0 0 63.526089 50.147762"
   version="1.1"
   id="svg4977"
   sodipodi:docname="clear-day.svg"
   inkscape:version="0.92.3 (2405546, 2018-03-11)">
  <defs
     id="defs4971" />
  <sodipodi:namedview
     id="base"
     pagecolor="#ffffff"
     bordercolor="#666666"
     borderopacity="1.0"
     inkscape:pageopacity="0.0"
     inkscape:pageshadow="2"
     inkscape:zoom="0.35"
     inkscape:cx="-79.697709"
     inkscape:cy="-343.9448"
     inkscape:document-units="mm"
     inkscape:current-layer="layer1"
     showgrid="false"
     inkscape:window-width="2560"
     inkscape:window-height="1377"
     inkscape:window-x="-8"
     inkscape:window-y="-8"
     inkscape:window-maximized="1"
     fit-margin-top="0"
     fit-margin-left="0"
     fit-margin-right="0"
     fit-margin-bottom="0" />
  <metadata
     id="metadata4974">
    <rdf:RDF>
      <cc:Work
         rdf:about="">
        <dc:format>image/svg+xml</dc:format>
        <dc:type
           rdf:resource="http://purl.org/dc/dcmitype/StillImage" />
        <dc:title />
      </cc:Work>
    </rdf:RDF>
  </metadata>
  <g
     inkscape:label="Layer 1"
     inkscape:groupmode="layer"
     id="layer1"
     transform="translate(-0.74290895,-0.53921857)">
    <path
       style="fill:#ffffff;stroke-width:1.248564;fill-opacity:1"
       inkscape:connector-curvature="0"
       d="m 62.567491,24.281749 h -12.36491 c -0.42154,-2.88461 -1.82664,-5.43638 -3.9343,-7.54436 l 6.32297,-4.99259 c 0.70255,-0.55473 0.70255,-1.4423 0,-1.9970304 -0.70255,-0.55473 -1.82663,-0.55473 -2.52918,0 l -6.32297,4.9925904 c -2.6697,-1.77515 -5.90144,-2.88461 -9.55471,-3.1065 V 1.8705786 c 0,-0.77663 -0.84306,-1.33136003 -1.68612,-1.33136003 -0.84307,0 -1.68613,0.66568003 -1.68613,1.33136003 v 9.7632804 c -3.65327,0.33284 -6.88501,1.4423 -9.55471,3.1065 l -6.32296,-4.9925904 c -0.702562,-0.55473 -1.826642,-0.55473 -2.529192,0 -0.70255,0.5547304 -0.70255,1.4423004 0,1.9970304 l 6.322972,4.99259 c -2.24817,2.10798 -3.65327,4.65975 -3.9343,7.54436 H 2.429039 c -0.98357,0 -1.68613005,0.66567 -1.68613005,1.33135 0,0.77663 0.84307005,1.33136 1.68613005,1.33136 h 12.364912 c 0.42154,2.8846 1.82664,5.43637 3.9343,7.54435 l -6.322972,4.99259 c -0.70255,0.55473 -0.70255,1.4423 0,1.99703 0.28102,0.2219 0.84306,0.44379 1.26459,0.44379 0.42153,0 0.84306,-0.11095 1.264602,-0.44379 l 6.32296,-4.99258 c 2.6697,1.77514 5.90144,2.8846 9.55471,3.1065 v 9.76328 c 0,0.77662 0.84306,1.33135 1.68613,1.33135 0.84306,0 1.68612,-0.66567 1.68612,-1.33135 v -9.76328 c 3.65327,-0.33284 6.88501,-1.44231 9.55471,-3.1065 l 6.32297,4.99258 c 0.28102,0.2219 0.84306,0.44379 1.26459,0.44379 0.42153,0 0.84306,-0.11095 1.26459,-0.44379 0.70255,-0.55473 0.70255,-1.4423 0,-1.99703 l -6.32297,-4.99259 c 2.24817,-2.10798 3.65327,-4.65975 3.9343,-7.54435 h 12.36491 c 0.98357,0 1.68613,-0.66568 1.68613,-1.33136 0.14051,-0.77662 -0.70256,-1.33135 -1.68613,-1.33135 z m -30.06922,12.64788 c -7.86859,0 -14.33207,-5.10353 -14.33207,-11.31653 0,-6.213 6.46348,-11.31653 14.33207,-11.31653 7.86858,0 14.33206,5.10353 14.33206,11.31653 0,6.213 -6.32297,11.31653 -14.33206,11.31653 z"
       id="path4738" />
  </g>
</svg>
