<?xml version="1.0" encoding="UTF-8" standalone="no"?>
<!-- Created with Inkscape (http://www.inkscape.org/) -->

<svg
   xmlns:dc="http://purl.org/dc/elements/1.1/"
   xmlns:cc="http://creativecommons.org/ns#"
   xmlns:rdf="http://www.w3.org/1999/02/22-rdf-syntax-ns#"
   xmlns:svg="http://www.w3.org/2000/svg"
   xmlns="http://www.w3.org/2000/svg"
   xmlns:sodipodi="http://sodipodi.sourceforge.net/DTD/sodipodi-0.dtd"
   xmlns:inkscape="http://www.inkscape.org/namespaces/inkscape"
   width="66.323692mm"
   height="33.394859mm"
   viewBox="0 0 66.323693 33.394859"
   version="1.1"
   id="svg4977"
   sodipodi:docname="cloudy.svg"
   inkscape:version="0.92.3 (2405546, 2018-03-11)">
  <defs
     id="defs4971" />
  <sodipodi:namedview
     id="base"
     pagecolor="#ffffff"
     bordercolor="#666666"
     borderopacity="1.0"
     inkscape:pageopacity="0.0"
     inkscape:pageshadow="2"
     inkscape:zoom="0.35"
     inkscape:cx="-839.92827"
     inkscape:cy="-169.8429"
     inkscape:document-units="mm"
     inkscape:current-layer="layer1"
     showgrid="false"
     inkscape:window-width="2560"
     inkscape:window-height="1377"
     inkscape:window-x="-8"
     inkscape:window-y="-8"
     inkscape:window-maximized="1"
     fit-margin-top="0"
     fit-margin-left="0"
     fit-margin-right="0"
     fit-margin-bottom="0" />
  <metadata
     id="metadata4974">
    <rdf:RDF>
      <cc:Work
         rdf:about="">
        <dc:format>image/svg+xml</dc:format>
        <dc:type
           rdf:resource="http://purl.org/dc/dcmitype/StillImage" />
        <dc:title />
      </cc:Work>
    </rdf:RDF>
  </metadata>
  <g
     inkscape:label="Layer 1"
     inkscape:groupmode="layer"
     id="layer1"
     transform="translate(-201.88725,-63.356579)">
    <path
       style="fill:#ffffff;stroke-width:1.248564;fill-opacity:1"
       inkscape:connector-curvature="0"
       d="m 256.68631,96.751439 h -42.99619 c -6.46347,0 -11.80287,-4.10502 -11.80287,-9.3195 0,-4.99258 5.05838,-9.0976 11.24083,-9.20855 -0.14051,-0.66567 -0.28102,-1.33135 -0.28102,-2.10798 0,-6.98962 7.16603,-12.75883 16.1587,-12.75883 5.33939,0 10.25726,2.10798 13.20798,5.43637 1.82663,-0.77662 3.79378,-1.22041 5.90143,-1.22041 7.02552,0 12.64594,4.43786 12.64594,9.98518 0,0.33283 0,0.77662 -0.14051,1.10946 4.49633,1.33136 7.58756,4.77069 7.58756,8.65382 0.14051,5.32542 -5.05837,9.43044 -11.52185,9.43044 z m -43.1367,-15.75439 c -4.49633,0 -8.29011,2.88461 -8.29011,6.54584 0,3.66123 3.65327,6.54584 8.29011,6.54584 h 42.99619 c 4.49633,0 8.29011,-2.88461 8.29011,-6.54584 0,-2.99555 -2.6697,-5.65827 -6.46348,-6.32394 l -1.82663,-0.33284 0.42153,-1.44231 c 0.14051,-0.55473 0.28102,-1.22041 0.28102,-1.77514 0,-3.99407 -4.0748,-7.21151 -9.13318,-7.21151 -1.96714,0 -3.93429,0.55473 -5.4799,1.4423 l -1.68613,0.99852 -0.98357,-1.44231 c -2.24817,-3.21744 -6.46348,-5.32542 -11.10032,-5.32542 -6.88501,0 -12.64594,4.43785 -12.64594,9.98517 0,0.99852 0.14051,1.99704 0.56204,2.99555 l 0.70256,1.77515 h -3.9343 z"
       id="path4566" />
  </g>
</svg>
