<?xml version="1.0" encoding="UTF-8" standalone="no"?>
<!-- Created with Inkscape (http://www.inkscape.org/) -->

<svg
   xmlns:dc="http://purl.org/dc/elements/1.1/"
   xmlns:cc="http://creativecommons.org/ns#"
   xmlns:rdf="http://www.w3.org/1999/02/22-rdf-syntax-ns#"
   xmlns:svg="http://www.w3.org/2000/svg"
   xmlns="http://www.w3.org/2000/svg"
   xmlns:sodipodi="http://sodipodi.sourceforge.net/DTD/sodipodi-0.dtd"
   xmlns:inkscape="http://www.inkscape.org/namespaces/inkscape"
   width="66.601929mm"
   height="45.820854mm"
   viewBox="0 0 66.601928 45.820852"
   version="1.1"
   id="svg4977"
   sodipodi:docname="drawing19.svg"
   inkscape:version="0.92.3 (2405546, 2018-03-11)">
  <defs
     id="defs4971" />
  <sodipodi:namedview
     id="base"
     pagecolor="#ffffff"
     bordercolor="#666666"
     borderopacity="1.0"
     inkscape:pageopacity="0.0"
     inkscape:pageshadow="2"
     inkscape:zoom="0.04375"
     inkscape:cx="-3588.4454"
     inkscape:cy="-517.01277"
     inkscape:document-units="mm"
     inkscape:current-layer="layer1"
     showgrid="false"
     inkscape:window-width="1920"
     inkscape:window-height="1017"
     inkscape:window-x="2552"
     inkscape:window-y="352"
     inkscape:window-maximized="1"
     fit-margin-top="0"
     fit-margin-left="0"
     fit-margin-right="0"
     fit-margin-bottom="0" />
  <metadata
     id="metadata4974">
    <rdf:RDF>
      <cc:Work
         rdf:about="">
        <dc:format>image/svg+xml</dc:format>
        <dc:type
           rdf:resource="http://purl.org/dc/dcmitype/StillImage" />
        <dc:title></dc:title>
      </cc:Work>
    </rdf:RDF>
  </metadata>
  <g
     inkscape:label="Layer 1"
     inkscape:groupmode="layer"
     id="layer1"
     transform="translate(371.50625,-925.01735)">
    <g
       id="g4612"
       transform="matrix(1.405104,0,0,1.1094638,-918.09171,362.07542)">
      <path
         style="fill:#444444"
         inkscape:connector-curvature="0"
         d="m 430.8,521.2 c 0,-0.3 0.1,-0.7 0.1,-1 0,-5 -4,-9 -9,-9 -1.5,0 -2.9,0.4 -4.2,1.1 -2.1,-3.1 -5.6,-4.9 -9.4,-4.9 -6.3,0 -11.5,5.1 -11.5,11.5 0,0.6 0.1,1.3 0.2,1.9 -4.4,0.2 -8,3.9 -8,8.3 0,4.6 3.7,8.4 8.4,8.4 H 428 c 4.6,0 8.4,-3.7 8.4,-8.4 -0.1,-3.5 -2.4,-6.7 -5.6,-7.9 z m -2.9,13.7 h -30.6 c -3.2,0 -5.9,-2.6 -5.9,-5.9 0,-3.3 2.6,-5.9 5.9,-5.9 h 2.9 l -0.5,-1.6 c -0.3,-0.9 -0.4,-1.8 -0.4,-2.7 0,-4.9 4,-9 9,-9 3.3,0 6.4,1.8 7.9,4.8 l 0.7,1.3 1.2,-0.9 c 1.1,-0.9 2.5,-1.3 3.9,-1.3 3.6,0 6.5,2.9 6.5,6.5 0,0.5 -0.1,1 -0.2,1.6 l -0.3,1.3 1.3,0.3 c 2.7,0.6 4.6,3 4.6,5.7 -0.1,3.2 -2.8,5.8 -6,5.8 z"
         id="path4594" />
      <path
         style="fill:#444444"
         inkscape:connector-curvature="0"
         d="m 406.3,543.1 c -0.7,0 -1.2,0.6 -1.2,1.3 0,0.7 0.6,1.2 1.2,1.2 0.6,0 1.2,-0.6 1.2,-1.2 v -0.1 c 0,-0.7 -0.6,-1.2 -1.2,-1.2 z"
         id="path4596" />
      <path
         style="fill:#444444"
         inkscape:connector-curvature="0"
         d="m 399.9,540 c -0.7,0 -1.2,0.6 -1.2,1.3 0,0.7 0.6,1.2 1.2,1.2 0.7,0 1.2,-0.6 1.2,-1.2 v -0.1 c 0.1,-0.7 -0.5,-1.2 -1.2,-1.2 z"
         id="path4598" />
      <path
         style="fill:#444444"
         inkscape:connector-curvature="0"
         d="m 399.9,546.2 c -0.7,0 -1.2,0.6 -1.2,1.3 0,0.7 0.6,1.2 1.2,1.2 0.7,0 1.2,-0.6 1.2,-1.2 v -0.1 c 0.1,-0.7 -0.5,-1.2 -1.2,-1.2 z"
         id="path4600" />
      <path
         style="fill:#444444"
         inkscape:connector-curvature="0"
         d="m 418.9,543.1 c -0.7,0 -1.2,0.6 -1.2,1.3 0,0.7 0.6,1.2 1.2,1.2 0.6,0 1.2,-0.6 1.2,-1.2 v -0.1 c 0.1,-0.7 -0.5,-1.2 -1.2,-1.2 z"
         id="path4602" />
      <path
         style="fill:#444444"
         inkscape:connector-curvature="0"
         d="m 412.6,540 c -0.7,0 -1.2,0.6 -1.2,1.3 0,0.7 0.6,1.2 1.2,1.2 0.7,0 1.2,-0.6 1.2,-1.2 v -0.1 c 0,-0.7 -0.5,-1.2 -1.2,-1.2 z"
         id="path4604" />
      <path
         style="fill:#444444"
         inkscape:connector-curvature="0"
         d="m 412.6,546.2 c -0.7,0 -1.2,0.6 -1.2,1.3 0,0.7 0.6,1.2 1.2,1.2 0.7,0 1.2,-0.6 1.2,-1.2 v -0.1 c 0,-0.7 -0.5,-1.2 -1.2,-1.2 z"
         id="path4606" />
      <path
         style="fill:#444444"
         inkscape:connector-curvature="0"
         d="m 425.3,540 c -0.7,0 -1.2,0.6 -1.2,1.3 0,0.7 0.6,1.2 1.2,1.2 0.6,0 1.2,-0.6 1.2,-1.2 v -0.1 c 0,-0.7 -0.5,-1.2 -1.2,-1.2 z"
         id="path4608" />
      <path
         style="fill:#444444"
         inkscape:connector-curvature="0"
         d="m 425.3,546.2 c -0.7,0 -1.2,0.6 -1.2,1.3 0,0.7 0.6,1.2 1.2,1.2 0.6,0 1.2,-0.6 1.2,-1.2 v -0.1 c 0,-0.7 -0.5,-1.2 -1.2,-1.2 z"
         id="path4610" />
    </g>
  </g>
</svg>
