<?xml version="1.0" encoding="UTF-8" standalone="no"?>
<!-- Created with Inkscape (http://www.inkscape.org/) -->

<svg
   xmlns:dc="http://purl.org/dc/elements/1.1/"
   xmlns:cc="http://creativecommons.org/ns#"
   xmlns:rdf="http://www.w3.org/1999/02/22-rdf-syntax-ns#"
   xmlns:svg="http://www.w3.org/2000/svg"
   xmlns="http://www.w3.org/2000/svg"
   xmlns:sodipodi="http://sodipodi.sourceforge.net/DTD/sodipodi-0.dtd"
   xmlns:inkscape="http://www.inkscape.org/namespaces/inkscape"
   width="74.048981mm"
   height="34.282429mm"
   viewBox="0 0 74.048981 34.282428"
   version="1.1"
   id="svg4977"
   sodipodi:docname="partly-cloudy-night1.svg"
   inkscape:version="0.92.3 (2405546, 2018-03-11)">
  <defs
     id="defs4971" />
  <sodipodi:namedview
     id="base"
     pagecolor="#ffffff"
     bordercolor="#666666"
     borderopacity="1.0"
     inkscape:pageopacity="0.0"
     inkscape:pageshadow="2"
     inkscape:zoom="0.35"
     inkscape:cx="-79.697709"
     inkscape:cy="-343.9448"
     inkscape:document-units="mm"
     inkscape:current-layer="layer1"
     showgrid="false"
     inkscape:window-width="2560"
     inkscape:window-height="1377"
     inkscape:window-x="-8"
     inkscape:window-y="-8"
     inkscape:window-maximized="1"
     fit-margin-top="0"
     fit-margin-left="0"
     fit-margin-right="0"
     fit-margin-bottom="0" />
  <metadata
     id="metadata4974">
    <rdf:RDF>
      <cc:Work
         rdf:about="">
        <dc:format>image/svg+xml</dc:format>
        <dc:type
           rdf:resource="http://purl.org/dc/dcmitype/StillImage" />
        <dc:title />
      </cc:Work>
    </rdf:RDF>
  </metadata>
  <g
     inkscape:label="Layer 1"
     inkscape:groupmode="layer"
     id="layer1"
     transform="translate(173.94903,-23.548841)">
    <path
       style="fill:#ffffff;stroke-width:1.248564;fill-opacity:1"
       inkscape:connector-curvature="0"
       d="m -99.900049,35.420101 c 0,-6.54583 -6.744501,-11.87126 -15.034611,-11.87126 -5.05838,0 -9.69522,1.99703 -12.36492,5.10353 -0.14051,0 -0.28102,0 -0.42153,0 -2.10766,0 -4.0748,0.44379 -5.90144,1.22041 -2.95072,-3.43933 -7.86858,-5.43637 -13.20797,-5.43637 -8.85216,0 -16.1587,5.65827 -16.1587,12.75883 0,0.66568 0.14051,1.44231 0.28102,2.10799 -6.18246,0.22189 -11.24083,4.3269 -11.24083,9.20854 0,5.103539 5.19888,9.3195 11.80287,9.3195 h 42.99618 c 6.46348,0 11.80288,-4.105021 11.80288,-9.3195 0,-0.88757 -0.14051,-1.66419 -0.42153,-2.44082 4.49633,-2.10798 7.868581,-5.9911 7.868581,-10.65085 z m -11.240831,13.09167 c 0,3.55029 -3.65327,6.545841 -8.29012,6.545841 h -42.99618 c -4.49633,0 -8.29011,-2.884601 -8.29011,-6.545841 0,-3.55028 3.65327,-6.54583 8.29011,-6.54583 h 4.0748 l -0.70255,-1.77514 c -0.42153,-0.99852 -0.56204,-1.99704 -0.56204,-2.99556 0,-5.43637 5.62041,-9.98517 12.64593,-9.98517 4.63685,0 8.99267,1.99703 11.10033,5.32543 l 0.98357,1.4423 1.68612,-0.99852 c 1.2646,-0.66568 2.6697,-1.22041 4.07481,-1.33135 0.42153,-0.11095 0.98357,-0.11095 1.4051,-0.11095 0.84306,0 1.54561,0.11095 2.24817,0.22189 3.93429,0.77663 6.88501,3.66123 6.88501,6.98962 0,0.55474 -0.14051,1.10947 -0.28103,1.77515 l -0.42153,1.4423 1.82664,0.33284 c 1.82663,0.33284 3.51276,1.10946 4.63684,2.32987 0.70255,0.77663 1.2646,1.6642 1.54562,2.55177 0.14051,0.22189 0.14051,0.77662 0.14051,1.33135 z m 1.68612,-5.10353 c -1.4051,-1.66419 -3.37225,-2.99555 -5.76092,-3.66123 0,-0.33284 0.14051,-0.77662 0.14051,-1.10946 0,-4.32691 -3.51276,-7.98814 -8.29012,-9.3195 2.10766,-1.77514 5.05838,-2.99555 8.43063,-2.99555 6.32296,0 11.52185,4.10501 11.52185,9.0976 0,3.43934 -2.52919,6.54584 -6.04195,7.98814 z"
       id="path4686" />
  </g>
</svg>
