<?xml version="1.0" encoding="UTF-8" standalone="no"?>
<!-- Created with Inkscape (http://www.inkscape.org/) -->

<svg
   xmlns:dc="http://purl.org/dc/elements/1.1/"
   xmlns:cc="http://creativecommons.org/ns#"
   xmlns:rdf="http://www.w3.org/1999/02/22-rdf-syntax-ns#"
   xmlns:svg="http://www.w3.org/2000/svg"
   xmlns="http://www.w3.org/2000/svg"
   xmlns:sodipodi="http://sodipodi.sourceforge.net/DTD/sodipodi-0.dtd"
   xmlns:inkscape="http://www.inkscape.org/namespaces/inkscape"
   width="68.147537mm"
   height="36.83419mm"
   viewBox="0 0 68.147538 36.83419"
   version="1.1"
   id="svg4977"
   sodipodi:docname="partly-cloudy-night.svg"
   inkscape:version="0.92.3 (2405546, 2018-03-11)">
  <defs
     id="defs4971" />
  <sodipodi:namedview
     id="base"
     pagecolor="#ffffff"
     bordercolor="#666666"
     borderopacity="1.0"
     inkscape:pageopacity="0.0"
     inkscape:pageshadow="2"
     inkscape:zoom="0.35"
     inkscape:cx="-443.70173"
     inkscape:cy="-165.1095"
     inkscape:document-units="mm"
     inkscape:current-layer="layer1"
     showgrid="false"
     inkscape:window-width="2560"
     inkscape:window-height="1377"
     inkscape:window-x="-8"
     inkscape:window-y="-8"
     inkscape:window-maximized="1"
     fit-margin-top="0"
     fit-margin-left="0"
     fit-margin-right="0"
     fit-margin-bottom="0" />
  <metadata
     id="metadata4974">
    <rdf:RDF>
      <cc:Work
         rdf:about="">
        <dc:format>image/svg+xml</dc:format>
        <dc:type
           rdf:resource="http://purl.org/dc/dcmitype/StillImage" />
        <dc:title />
      </cc:Work>
    </rdf:RDF>
  </metadata>
  <g
     inkscape:label="Layer 1"
     inkscape:groupmode="layer"
     id="layer1"
     transform="translate(-97.052311,-61.169629)">
    <path
       style="fill:#ffffff;stroke-width:1.248564;fill-opacity:1"
       inkscape:connector-curvature="0"
       d="m 165.19985,74.039409 c 0,-3.3284 -1.68612,-6.54584 -4.63684,-8.87572 -2.10766,-1.66419 -4.91787,-2.8846 -7.86859,-3.43933 l -3.37224,-0.55473 1.4051,2.55176 c 1.26459,2.21893 1.26459,4.88164 0.14051,7.10057 -2.10766,-1.33136 -4.77735,-1.99703 -7.58756,-1.99703 -2.10766,0 -4.0748,0.44378 -5.90144,1.22041 -2.95072,-3.43934 -7.86858,-5.43638 -13.20798,-5.43638 -8.85215,0 -16.15869,5.65827 -16.15869,12.75884 0,0.66568 0.14051,1.4423 0.28102,2.10798 -6.18246,0.22189 -11.240829,4.32691 -11.240829,9.208551 0,5.103529 5.198879,9.31949 11.802869,9.31949 h 42.99618 c 6.46348,0 11.80288,-4.10501 11.80288,-9.31949 0,-2.107981 -0.98358,-4.105021 -2.52919,-5.658271 2.52919,-2.66271 4.0748,-5.76921 4.0748,-8.98665 z m -10.11675,-8.76477 c 1.12408,0.44379 2.10766,1.10947 3.09123,1.77514 2.38868,1.88609 3.65327,4.32691 3.65327,6.98963 0,2.55176 -1.26459,4.99258 -3.51276,6.76772 -0.84306,-0.44378 -1.68612,-0.77662 -2.52919,-1.10946 0,-0.33284 0.14051,-0.77662 0.14051,-1.10946 0,-2.21893 -0.84306,-4.21597 -2.38867,-5.76921 1.4051,-2.32988 2.10765,-4.99259 1.54561,-7.54436 z m -3.51276,29.622682 h -42.99618 c -4.49633,0 -8.29011,-2.884602 -8.29011,-6.545832 0,-3.55029 3.65327,-6.54584 8.29011,-6.54584 h 4.0748 l -0.70255,-1.77514 c -0.42153,-0.99852 -0.56204,-1.99703 -0.56204,-2.99555 0,-5.43638 5.62041,-9.98518 12.64593,-9.98518 4.63685,0 8.99267,1.99704 11.10032,5.32543 l 0.98358,1.4423 1.68612,-0.99851 c 1.54562,-0.99852 3.51276,-1.44231 5.47991,-1.44231 2.10765,0 4.21531,0.55473 5.76092,1.6642 0.98358,0.55473 1.68613,1.33135 2.24817,2.10798 0.70255,0.99852 1.12408,2.21893 1.12408,3.43934 0,0.55473 -0.14051,1.10946 -0.28102,1.77514 l -0.42153,1.4423 1.82664,0.33284 c 0.70255,0.11095 1.26459,0.33284 1.96714,0.55473 1.12409,0.44379 2.10766,1.10947 2.81021,1.88609 1.12408,1.10947 1.68613,2.44082 1.68613,3.88312 -0.14051,3.55029 -3.9343,6.434892 -8.43063,6.434892 z"
       id="path4684" />
  </g>
</svg>
