<?xml version="1.0" encoding="UTF-8" standalone="no"?>
<!-- Created with Inkscape (http://www.inkscape.org/) -->

<svg
   xmlns:dc="http://purl.org/dc/elements/1.1/"
   xmlns:cc="http://creativecommons.org/ns#"
   xmlns:rdf="http://www.w3.org/1999/02/22-rdf-syntax-ns#"
   xmlns:svg="http://www.w3.org/2000/svg"
   xmlns="http://www.w3.org/2000/svg"
   xmlns:sodipodi="http://sodipodi.sourceforge.net/DTD/sodipodi-0.dtd"
   xmlns:inkscape="http://www.inkscape.org/namespaces/inkscape"
   width="73.205917mm"
   height="41.382999mm"
   viewBox="0 0 73.205918 41.382999"
   version="1.1"
   id="svg4977"
   sodipodi:docname="partly-cloudy-day.svg"
   inkscape:version="0.92.3 (2405546, 2018-03-11)">
  <defs
     id="defs4971" />
  <sodipodi:namedview
     id="base"
     pagecolor="#ffffff"
     bordercolor="#666666"
     borderopacity="1.0"
     inkscape:pageopacity="0.0"
     inkscape:pageshadow="2"
     inkscape:zoom="0.35"
     inkscape:cx="-890.15781"
     inkscape:cy="-123.06739"
     inkscape:document-units="mm"
     inkscape:current-layer="layer1"
     showgrid="false"
     inkscape:window-width="2560"
     inkscape:window-height="1377"
     inkscape:window-x="-8"
     inkscape:window-y="-8"
     inkscape:window-maximized="1"
     fit-margin-top="0"
     fit-margin-left="0"
     fit-margin-right="0"
     fit-margin-bottom="0" />
  <metadata
     id="metadata4974">
    <rdf:RDF>
      <cc:Work
         rdf:about="">
        <dc:format>image/svg+xml</dc:format>
        <dc:type
           rdf:resource="http://purl.org/dc/dcmitype/StillImage" />
        <dc:title />
      </cc:Work>
    </rdf:RDF>
  </metadata>
  <g
     inkscape:label="Layer 1"
     inkscape:groupmode="layer"
     id="layer1"
     transform="translate(-215.17715,-67.744462)">
    <path
       style="fill:#ffffff;stroke-width:1.248564;fill-opacity:1"
       inkscape:connector-curvature="0"
       d="m 286.41592,81.058022 h -6.32296 c -0.28102,-1.33136 -0.98358,-2.55177 -1.82664,-3.55028 l 3.09123,-2.44082 c 0.70255,-0.55474 0.70255,-1.44231 0,-1.99704 -0.70255,-0.55473 -1.82664,-0.55473 -2.52919,0 l -3.09123,2.44082 c -1.26459,-0.77662 -2.8102,-1.22041 -4.49633,-1.4423 v -4.99259 c 0,-0.77662 -0.84306,-1.33135 -1.68612,-1.33135 -0.84307,0 -1.68613,0.66567 -1.68613,1.33135 v 4.99259 c -1.68612,0.22189 -3.23174,0.77662 -4.49633,1.4423 l -3.09123,-2.44082 c -0.70255,-0.55473 -1.82664,-0.55473 -2.52919,0 -0.70255,0.55473 -0.70255,1.4423 0,1.99704 l 3.09123,2.44082 c -0.70255,0.77662 -1.26459,1.66419 -1.68612,2.66271 -1.2646,0.22189 -2.52919,0.55473 -3.65327,0.99852 -2.95072,-3.43934 -7.86859,-5.43637 -13.20798,-5.43637 -8.85216,0 -16.1587,5.65826 -16.1587,12.75883 0,0.66568 0.14051,1.4423 0.28102,2.10798 -6.18245,0.22189 -11.24083,4.32691 -11.24083,9.20855 0,5.103528 5.19889,9.319498 11.80288,9.319498 h 42.99618 c 6.46348,0 11.80287,-4.10502 11.80287,-9.319499 0,-3.88312 -3.09123,-7.322459 -7.58756,-8.653819 0,-0.33284 0,-0.55473 0,-0.88757 0.70255,-0.22189 1.26459,-0.55473 1.82663,-0.77662 l 3.09123,2.44082 c 0.28102,0.22189 0.84307,0.44378 1.2646,0.44378 0.42153,0 0.84306,-0.11094 1.26459,-0.44378 0.70255,-0.55474 0.70255,-1.44231 0,-1.99704 l -3.09123,-2.44082 c 0.98357,-0.99852 1.54562,-2.21893 1.82664,-3.55028 h 6.32297 c 0.98357,0 1.68612,-0.66568 1.68612,-1.33136 -0.14051,-0.88757 -0.98357,-1.55325 -1.96715,-1.55325 z m -8.43062,18.74994 c 0,3.550278 -3.65327,6.545838 -8.29011,6.545838 H 226.699 c -4.49633,0 -8.29011,-2.88461 -8.29011,-6.545838 0,-3.55028 3.65327,-6.54584 8.29011,-6.54584 h 4.07481 l -0.70256,-1.77514 c -0.42153,-0.99852 -0.56204,-1.99703 -0.56204,-2.99555 0,-5.43637 5.62042,-9.98518 12.64594,-9.98518 4.63684,0 8.99266,1.99704 11.10032,5.32543 l 0.98357,1.4423 1.68613,-0.99851 c 0.84306,-0.55474 1.82663,-0.88757 2.81021,-1.10947 0.84306,-0.22189 1.68612,-0.33284 2.66969,-0.33284 0.28102,0 0.56204,0 0.84307,0 3.79378,0.33284 7.02552,2.44082 7.86858,5.32543 0.14051,0.55473 0.28102,1.22041 0.28102,1.77514 0,0.33284 0,0.66568 -0.14051,0.99852 0,0.22189 -0.14051,0.55473 -0.14051,0.77662 l -0.42153,1.44231 1.82663,0.33284 c 3.79378,0.55473 6.46348,3.328391 6.46348,6.32394 z m -4.49633,-12.53694 c -1.40511,-3.77218 -5.47991,-6.65678 -10.67879,-7.21152 1.12408,-1.99703 3.65327,-3.32839 6.60399,-3.32839 4.0748,0 7.30654,2.55177 7.30654,5.76921 0.14051,1.99704 -1.2646,3.77218 -3.23174,4.7707 z"
       id="path4736" />
  </g>
</svg>
