<?xml version="1.0" encoding="UTF-8" standalone="no"?>
<!-- Created with Inkscape (http://www.inkscape.org/) -->

<svg
   xmlns:dc="http://purl.org/dc/elements/1.1/"
   xmlns:cc="http://creativecommons.org/ns#"
   xmlns:rdf="http://www.w3.org/1999/02/22-rdf-syntax-ns#"
   xmlns:svg="http://www.w3.org/2000/svg"
   xmlns="http://www.w3.org/2000/svg"
   xmlns:sodipodi="http://sodipodi.sourceforge.net/DTD/sodipodi-0.dtd"
   xmlns:inkscape="http://www.inkscape.org/namespaces/inkscape"
   width="66.601929mm"
   height="51.701012mm"
   viewBox="0 0 66.601929 51.701011"
   version="1.1"
   id="svg4977"
   sodipodi:docname="rain.svg"
   inkscape:version="0.92.3 (2405546, 2018-03-11)">
  <defs
     id="defs4971" />
  <sodipodi:namedview
     id="base"
     pagecolor="#ffffff"
     bordercolor="#666666"
     borderopacity="1.0"
     inkscape:pageopacity="0.0"
     inkscape:pageshadow="2"
     inkscape:zoom="1.979899"
     inkscape:cx="226.07743"
     inkscape:cy="115.99767"
     inkscape:document-units="mm"
     inkscape:current-layer="layer1"
     showgrid="false"
     inkscape:window-width="2560"
     inkscape:window-height="1377"
     inkscape:window-x="-8"
     inkscape:window-y="-8"
     inkscape:window-maximized="1"
     fit-margin-top="0"
     fit-margin-left="0"
     fit-margin-right="0"
     fit-margin-bottom="0" />
  <metadata
     id="metadata4974">
    <rdf:RDF>
      <cc:Work
         rdf:about="">
        <dc:format>image/svg+xml</dc:format>
        <dc:type
           rdf:resource="http://purl.org/dc/dcmitype/StillImage" />
        <dc:title />
      </cc:Work>
    </rdf:RDF>
  </metadata>
  <g
     inkscape:label="Layer 1"
     inkscape:groupmode="layer"
     id="layer1"
     transform="translate(-299.60849,-72.909262)">
    <g
       id="g4646"
       transform="matrix(1.405104,0,0,1.1094638,-246.97697,-182.93309)"
       style="fill:#ffffff;fill-opacity:1">
      <path
         style="fill:#ffffff;fill-opacity:1"
         inkscape:connector-curvature="0"
         d="m 430.8,244.4 c 0,-0.3 0.1,-0.7 0.1,-1 0,-5 -4,-9 -9,-9 -1.5,0 -2.9,0.4 -4.2,1.1 -2.1,-3.1 -5.6,-4.9 -9.4,-4.9 -6.3,0 -11.5,5.1 -11.5,11.5 0,0.6 0.1,1.3 0.2,1.9 -4.4,0.2 -8,3.9 -8,8.3 0,4.6 3.7,8.4 8.4,8.4 H 428 c 4.6,0 8.4,-3.7 8.4,-8.4 -0.1,-3.6 -2.4,-6.7 -5.6,-7.9 z m -2.9,13.6 h -30.6 c -3.2,0 -5.9,-2.6 -5.9,-5.9 0,-3.3 2.6,-5.9 5.9,-5.9 h 2.9 l -0.5,-1.6 c -0.3,-0.9 -0.4,-1.8 -0.4,-2.7 0,-4.9 4,-9 9,-9 3.3,0 6.4,1.8 7.9,4.8 l 0.7,1.3 1.2,-0.9 c 1.1,-0.9 2.5,-1.3 3.9,-1.3 3.6,0 6.5,2.9 6.5,6.5 0,0.5 -0.1,1 -0.2,1.6 l -0.3,1.3 1.3,0.3 c 2.7,0.6 4.6,3 4.6,5.7 -0.1,3.2 -2.8,5.8 -6,5.8 z"
         id="path4632" />
      <path
         style="fill:#ffffff;fill-opacity:1"
         inkscape:connector-curvature="0"
         d="m 399.1,262.6 c -0.7,0 -1.2,0.6 -1.2,1.2 v 8 c 0,0.7 0.6,1.2 1.2,1.2 0.7,0 1.2,-0.6 1.2,-1.2 v -8 c 0.1,-0.6 -0.5,-1.2 -1.2,-1.2 z"
         id="path4634" />
      <path
         style="fill:#ffffff;fill-opacity:1"
         inkscape:connector-curvature="0"
         d="m 410.1,262.6 c -0.7,0 -1.2,0.6 -1.2,1.2 v 8 c 0,0.7 0.6,1.2 1.2,1.2 0.7,0 1.2,-0.6 1.2,-1.2 v -8 c 0,-0.6 -0.5,-1.2 -1.2,-1.2 z"
         id="path4636" />
      <path
         style="fill:#ffffff;fill-opacity:1"
         inkscape:connector-curvature="0"
         d="m 415.6,262.6 c -0.7,0 -1.2,0.6 -1.2,1.2 V 276 c 0,0.7 0.6,1.2 1.2,1.2 0.7,0 1.2,-0.6 1.2,-1.2 v -12.2 c 0,-0.6 -0.6,-1.2 -1.2,-1.2 z"
         id="path4638" />
      <path
         style="fill:#ffffff;fill-opacity:1"
         inkscape:connector-curvature="0"
         d="m 404.6,262.6 c -0.7,0 -1.2,0.6 -1.2,1.2 V 276 c 0,0.7 0.6,1.2 1.2,1.2 0.7,0 1.2,-0.6 1.2,-1.2 v -12.2 c 0,-0.6 -0.5,-1.2 -1.2,-1.2 z"
         id="path4640" />
      <path
         style="fill:#ffffff;fill-opacity:1"
         inkscape:connector-curvature="0"
         d="m 421,262.6 c -0.7,0 -1.2,0.6 -1.2,1.2 v 8 c 0,0.7 0.6,1.2 1.2,1.2 0.6,0 1.2,-0.6 1.2,-1.2 v -8 c 0.1,-0.6 -0.5,-1.2 -1.2,-1.2 z"
         id="path4642" />
      <path
         style="fill:#ffffff;fill-opacity:1"
         inkscape:connector-curvature="0"
         d="m 426.2,262.6 c -0.7,0 -1.2,0.6 -1.2,1.2 v 4 c 0,0.7 0.6,1.2 1.2,1.2 0.7,0 1.2,-0.6 1.2,-1.2 v -4 c 0,-0.6 -0.5,-1.2 -1.2,-1.2 z"
         id="path4644" />
    </g>
  </g>
</svg>
