<?xml version="1.0" encoding="UTF-8" standalone="no"?>
<!-- Created with Inkscape (http://www.inkscape.org/) -->

<svg
   xmlns:dc="http://purl.org/dc/elements/1.1/"
   xmlns:cc="http://creativecommons.org/ns#"
   xmlns:rdf="http://www.w3.org/1999/02/22-rdf-syntax-ns#"
   xmlns:svg="http://www.w3.org/2000/svg"
   xmlns="http://www.w3.org/2000/svg"
   xmlns:sodipodi="http://sodipodi.sourceforge.net/DTD/sodipodi-0.dtd"
   xmlns:inkscape="http://www.inkscape.org/namespaces/inkscape"
   width="70.441818mm"
   height="46.090721mm"
   viewBox="0 0 70.441818 46.090719"
   version="1.1"
   id="svg4977"
   sodipodi:docname="wind.svg"
   inkscape:version="0.92.3 (2405546, 2018-03-11)">
  <defs
     id="defs4971" />
  <sodipodi:namedview
     id="base"
     pagecolor="#ffffff"
     bordercolor="#666666"
     borderopacity="1.0"
     inkscape:pageopacity="0.0"
     inkscape:pageshadow="2"
     inkscape:zoom="2.8"
     inkscape:cx="228.94588"
     inkscape:cy="149.15846"
     inkscape:document-units="mm"
     inkscape:current-layer="g4542"
     showgrid="false"
     inkscape:window-width="2560"
     inkscape:window-height="1377"
     inkscape:window-x="-8"
     inkscape:window-y="-8"
     inkscape:window-maximized="1"
     fit-margin-top="0"
     fit-margin-left="0"
     fit-margin-right="0"
     fit-margin-bottom="0" />
  <metadata
     id="metadata4974">
    <rdf:RDF>
      <cc:Work
         rdf:about="">
        <dc:format>image/svg+xml</dc:format>
        <dc:type
           rdf:resource="http://purl.org/dc/dcmitype/StillImage" />
        <dc:title />
      </cc:Work>
    </rdf:RDF>
  </metadata>
  <g
     inkscape:label="Layer 1"
     inkscape:groupmode="layer"
     id="layer1"
     transform="translate(-277.55533,-115.31868)">
    <g
       id="g4542"
       transform="matrix(1.405104,0,0,1.1094638,-416.09841,-295.8486)">
      <path
         style="fill:#ffffff;fill-opacity:1"
         inkscape:connector-curvature="0"
         d="m 513.4,390.3 c -0.7,0 -1.2,0.6 -1.2,1.2 0,0.7 0.6,1.2 1.2,1.2 h 18.9 c 0.7,0 1.2,-0.6 1.2,-1.2 0,-0.7 -0.6,-1.2 -1.2,-1.2 z"
         id="path4530" />
      <path
         style="fill:#ffffff;fill-opacity:1"
         inkscape:connector-curvature="0"
         d="m 542.6,390.3 h -4.8 c -0.7,0 -1.2,0.6 -1.2,1.2 0,0.7 0.6,1.2 1.2,1.2 h 4.8 c 0.7,0 1.2,-0.6 1.2,-1.2 0,-0.7 -0.5,-1.2 -1.2,-1.2 z"
         id="path4532" />
      <path
         style="fill:#ffffff;fill-opacity:1"
         inkscape:connector-curvature="0"
         d="m 529.2,385.6 c 0,0.7 0.6,1.2 1.2,1.2 h 4.8 c 0.7,0 1.2,-0.6 1.2,-1.2 0,-0.7 -0.6,-1.2 -1.2,-1.2 h -4.8 c -0.7,0 -1.2,0.6 -1.2,1.2 z"
         id="path4534" />
      <path
         style="fill:#ffffff;fill-opacity:1"
         inkscape:connector-curvature="0"
         d="m 524.8,381.3 h 4.8 c 0.7,0 1.2,-0.6 1.2,-1.2 0,-0.7 -0.6,-1.2 -1.2,-1.2 h -4.8 c -0.7,0 -1.2,0.6 -1.2,1.2 -0.1,0.6 0.5,1.2 1.2,1.2 z"
         id="path4536" />
      <path
         style="fill:#ffffff;fill-opacity:1"
         inkscape:connector-curvature="0"
         d="M 538.3,396 H 513 c 0,0 0,0 0,0 0,0 -0.1,0 -0.1,0 -3.1,0 -5.9,1.5 -7.7,3.9 -2.6,3.5 -1.8,8.5 1.7,11 2.9,2.1 7,1.5 9.2,-1.5 1.8,-2.5 1.2,-5.9 -1.2,-7.7 -2.1,-1.5 -5,-1 -6.5,1 -1.3,1.8 -0.9,4.3 0.9,5.5 0.7,0.5 1.4,0.7 2.2,0.6 0.7,0 1.2,-0.6 1.2,-1.3 0,-0.7 -0.6,-1.2 -1.3,-1.2 -0.1,0 -0.4,0 -0.6,-0.2 -0.7,-0.5 -0.8,-1.4 -0.3,-2.1 0.7,-1 2,-1.2 3,-0.5 1.3,1 1.6,2.9 0.7,4.2 -1.3,1.8 -3.9,2.2 -5.7,0.9 -2.4,-1.7 -2.9,-5.1 -1.2,-7.5 1.3,-1.8 3.5,-2.9 5.8,-2.9 0,0 0,0 0,0 0,0 0,0 0,0 h 25.3 c 0.7,0 1.2,-0.6 1.2,-1.2 0,-0.4 -0.6,-1 -1.3,-1 z"
         id="path4538" />
      <path
         style="fill:#ffffff;fill-opacity:1"
         inkscape:connector-curvature="0"
         d="m 524.6,386.9 c 0.7,0 1.2,-0.6 1.2,-1.2 0,-0.7 -0.6,-1.2 -1.2,-1.2 h -21.4 c 0,0 0,0 0,0 0,0 -0.1,0 -0.1,0 -2.3,0 -4.4,-1.1 -5.7,-2.9 -1.7,-2.4 -1.2,-5.8 1.2,-7.5 0.9,-0.6 2,-0.9 3,-0.7 1.1,0.2 2,0.7 2.6,1.6 1,1.3 0.7,3.2 -0.7,4.2 -1,0.7 -2.3,0.5 -3,-0.5 -0.5,-0.7 -0.3,-1.6 0.3,-2.1 0,0 0,0 0,0 0.1,-0.1 0.2,-0.1 0.3,-0.2 0.7,-0.2 1.1,-0.8 0.9,-1.5 -0.1,-0.6 -0.6,-1 -1.2,-1 -0.1,0 -0.2,0 -0.3,0 -0.5,0.1 -0.9,0.3 -1.3,0.6 0,0 0,0 0,0 -1.8,1.3 -2.2,3.8 -0.9,5.5 1.5,2.1 4.4,2.5 6.5,1 2.5,-1.8 3,-5.2 1.2,-7.7 -1,-1.4 -2.6,-2.3 -4.3,-2.6 -0.3,-0.1 -0.7,-0.1 -1,-0.1 -1.4,0 -2.7,0.4 -3.8,1.3 -3.5,2.6 -4.3,7.5 -1.7,11 1.8,2.5 4.7,3.9 7.7,3.9 0,0 0.1,0 0.1,0 0,0 0,0 0,0 h 21.6 z"
         id="path4540" />
    </g>
  </g>
</svg>
