<?xml version="1.0" encoding="UTF-8" standalone="no"?>
<!-- Created with Inkscape (http://www.inkscape.org/) -->

<svg
   xmlns:dc="http://purl.org/dc/elements/1.1/"
   xmlns:cc="http://creativecommons.org/ns#"
   xmlns:rdf="http://www.w3.org/1999/02/22-rdf-syntax-ns#"
   xmlns:svg="http://www.w3.org/2000/svg"
   xmlns="http://www.w3.org/2000/svg"
   xmlns:sodipodi="http://sodipodi.sourceforge.net/DTD/sodipodi-0.dtd"
   xmlns:inkscape="http://www.inkscape.org/namespaces/inkscape"
   width="63.526077mm"
   height="50.147762mm"
   viewBox="0 0 63.526077 50.14776"
   version="1.1"
   id="svg4977"
   sodipodi:docname="drawing16.svg"
   inkscape:version="0.92.3 (2405546, 2018-03-11)">
  <defs
     id="defs4971" />
  <sodipodi:namedview
     id="base"
     pagecolor="#ffffff"
     bordercolor="#666666"
     borderopacity="1.0"
     inkscape:pageopacity="0.0"
     inkscape:pageshadow="2"
     inkscape:zoom="0.35"
     inkscape:cx="-440.15426"
     inkscape:cy="332.15825"
     inkscape:document-units="mm"
     inkscape:current-layer="layer1"
     showgrid="false"
     inkscape:window-width="1920"
     inkscape:window-height="1017"
     inkscape:window-x="2552"
     inkscape:window-y="352"
     inkscape:window-maximized="1"
     fit-margin-top="0"
     fit-margin-left="0"
     fit-margin-right="0"
     fit-margin-bottom="0" />
  <metadata
     id="metadata4974">
    <rdf:RDF>
      <cc:Work
         rdf:about="">
        <dc:format>image/svg+xml</dc:format>
        <dc:type
           rdf:resource="http://purl.org/dc/dcmitype/StillImage" />
        <dc:title></dc:title>
      </cc:Work>
    </rdf:RDF>
  </metadata>
  <g
     inkscape:label="Layer 1"
     inkscape:groupmode="layer"
     id="layer1"
     transform="translate(-246.54824,-179.4248)">
    <g
       id="g4714"
       transform="matrix(1.405104,0,0,1.1094638,146.50484,-381.07631)">
      <circle
         style="fill:#444444"
         cx="93.800003"
         cy="527.79999"
         r="7.1999998"
         id="circle4710" />
      <path
         style="fill:#444444"
         inkscape:connector-curvature="0"
         d="m 115.2,526.6 h -8.8 c -0.3,-2.6 -1.3,-4.9 -2.8,-6.8 l 4.5,-4.5 c 0.5,-0.5 0.5,-1.3 0,-1.8 -0.5,-0.5 -1.3,-0.5 -1.8,0 l -4.5,4.5 c -1.9,-1.6 -4.2,-2.6 -6.8,-2.8 v -8.8 c 0,-0.7 -0.6,-1.2 -1.2,-1.2 -0.6,0 -1.2,0.6 -1.2,1.2 v 8.8 c -2.6,0.3 -4.9,1.3 -6.8,2.8 l -4.5,-4.5 c -0.5,-0.5 -1.3,-0.5 -1.8,0 -0.5,0.5 -0.5,1.3 0,1.8 l 4.5,4.5 c -1.6,1.9 -2.6,4.2 -2.8,6.8 h -8.8 c -0.7,0 -1.2,0.6 -1.2,1.2 0,0.7 0.6,1.2 1.2,1.2 h 8.8 c 0.3,2.6 1.3,4.9 2.8,6.8 l -4.5,4.5 c -0.5,0.5 -0.5,1.3 0,1.8 0.2,0.2 0.6,0.4 0.9,0.4 0.3,0 0.6,-0.1 0.9,-0.4 l 4.5,-4.5 c 1.9,1.6 4.2,2.6 6.8,2.8 v 8.8 c 0,0.7 0.6,1.2 1.2,1.2 0.6,0 1.2,-0.6 1.2,-1.2 v -8.8 c 2.6,-0.3 4.9,-1.3 6.8,-2.8 l 4.5,4.5 c 0.2,0.2 0.6,0.4 0.9,0.4 0.3,0 0.6,-0.1 0.9,-0.4 0.5,-0.5 0.5,-1.3 0,-1.8 l -4.5,-4.5 c 1.6,-1.9 2.6,-4.2 2.8,-6.8 h 8.8 c 0.7,0 1.2,-0.6 1.2,-1.2 0.1,-0.7 -0.5,-1.2 -1.2,-1.2 z M 93.8,538 c -5.6,0 -10.2,-4.6 -10.2,-10.2 0,-5.6 4.6,-10.2 10.2,-10.2 5.6,0 10.2,4.6 10.2,10.2 0,5.7 -4.5,10.2 -10.2,10.2 z"
         id="path4712" />
    </g>
  </g>
</svg>
