<?xml version="1.0" encoding="UTF-8" standalone="no"?>
<!-- Created with Inkscape (http://www.inkscape.org/) -->

<svg
   xmlns:dc="http://purl.org/dc/elements/1.1/"
   xmlns:cc="http://creativecommons.org/ns#"
   xmlns:rdf="http://www.w3.org/1999/02/22-rdf-syntax-ns#"
   xmlns:svg="http://www.w3.org/2000/svg"
   xmlns="http://www.w3.org/2000/svg"
   xmlns:sodipodi="http://sodipodi.sourceforge.net/DTD/sodipodi-0.dtd"
   xmlns:inkscape="http://www.inkscape.org/namespaces/inkscape"
   width="73.205917mm"
   height="55.029404mm"
   viewBox="0 0 73.205918 55.029403"
   version="1.1"
   id="svg4977"
   sodipodi:docname="drawing11.svg"
   inkscape:version="0.92.3 (2405546, 2018-03-11)">
  <defs
     id="defs4971" />
  <sodipodi:namedview
     id="base"
     pagecolor="#ffffff"
     bordercolor="#666666"
     borderopacity="1.0"
     inkscape:pageopacity="0.0"
     inkscape:pageshadow="2"
     inkscape:zoom="0.35"
     inkscape:cx="472.29085"
     inkscape:cy="111.641"
     inkscape:document-units="mm"
     inkscape:current-layer="layer1"
     showgrid="false"
     inkscape:window-width="1920"
     inkscape:window-height="1017"
     inkscape:window-x="2552"
     inkscape:window-y="352"
     inkscape:window-maximized="1"
     fit-margin-top="0"
     fit-margin-left="0"
     fit-margin-right="0"
     fit-margin-bottom="0" />
  <metadata
     id="metadata4974">
    <rdf:RDF>
      <cc:Work
         rdf:about="">
        <dc:format>image/svg+xml</dc:format>
        <dc:type
           rdf:resource="http://purl.org/dc/dcmitype/StillImage" />
        <dc:title></dc:title>
      </cc:Work>
    </rdf:RDF>
  </metadata>
  <g
     inkscape:label="Layer 1"
     inkscape:groupmode="layer"
     id="layer1"
     transform="translate(-5.1304676,-116.19798)">
    <g
       id="g4734"
       transform="matrix(1.405104,0,0,1.1094638,-90.276094,-289.86577)">
      <path
         style="fill:#444444"
         inkscape:connector-curvature="0"
         d="m 78.7,405.2 c -0.7,0 -1.2,0.6 -1.2,1.2 v 8 c 0,0.7 0.6,1.2 1.2,1.2 0.6,0 1.2,-0.6 1.2,-1.2 v -8 c 0.1,-0.6 -0.5,-1.2 -1.2,-1.2 z"
         id="path4716" />
      <path
         style="fill:#444444"
         inkscape:connector-curvature="0"
         d="m 89.6,405.2 c -0.7,0 -1.2,0.6 -1.2,1.2 v 8 c 0,0.7 0.6,1.2 1.2,1.2 0.7,0 1.2,-0.6 1.2,-1.2 v -8 c 0,-0.6 -0.6,-1.2 -1.2,-1.2 z"
         id="path4718" />
      <path
         style="fill:#444444"
         inkscape:connector-curvature="0"
         d="m 100.4,405.2 c -0.7,0 -1.2,0.6 -1.2,1.2 v 2 c 0,0.7 0.6,1.2 1.2,1.2 0.6,0 1.2,-0.6 1.2,-1.2 v -2 c 0,-0.6 -0.5,-1.2 -1.2,-1.2 z"
         id="path4720" />
      <path
         style="fill:#444444"
         inkscape:connector-curvature="0"
         d="m 100.4,410.7 c -0.7,0 -1.2,0.6 -1.2,1.3 0,0.7 0.6,1.2 1.2,1.2 0.6,0 1.2,-0.6 1.2,-1.2 v 0 c 0,-0.8 -0.5,-1.3 -1.2,-1.3 z"
         id="path4722" />
      <path
         style="fill:#444444"
         inkscape:connector-curvature="0"
         d="m 84.1,405.2 c -0.7,0 -1.2,0.6 -1.2,1.2 v 2 c 0,0.7 0.6,1.2 1.2,1.2 0.7,0 1.2,-0.6 1.2,-1.2 v -2 c 0.1,-0.6 -0.5,-1.2 -1.2,-1.2 z"
         id="path4724" />
      <path
         style="fill:#444444"
         inkscape:connector-curvature="0"
         d="m 84.1,410.7 c -0.7,0 -1.2,0.6 -1.2,1.3 0,0.7 0.6,1.2 1.2,1.2 0.7,0 1.2,-0.6 1.2,-1.2 v 0 c 0.1,-0.8 -0.5,-1.3 -1.2,-1.3 z"
         id="path4726" />
      <path
         style="fill:#444444"
         inkscape:connector-curvature="0"
         d="m 105.8,405.2 c -0.7,0 -1.2,0.6 -1.2,1.2 v 4 c 0,0.7 0.6,1.2 1.2,1.2 0.6,0 1.2,-0.6 1.2,-1.2 v -4 c 0,-0.6 -0.5,-1.2 -1.2,-1.2 z"
         id="path4728" />
      <path
         style="fill:#444444"
         inkscape:connector-curvature="0"
         d="m 95,405.2 c -0.7,0 -1.2,0.6 -1.2,1.2 v 4 c 0,0.7 0.6,1.2 1.2,1.2 0.7,0 1.2,-0.6 1.2,-1.2 v -4 c 0,-0.6 -0.5,-1.2 -1.2,-1.2 z"
         id="path4730" />
      <path
         style="fill:#444444"
         inkscape:connector-curvature="0"
         d="m 118.6,378 h -4.5 c -0.2,-1.2 -0.7,-2.3 -1.3,-3.2 l 2.2,-2.2 c 0.5,-0.5 0.5,-1.3 0,-1.8 -0.5,-0.5 -1.3,-0.5 -1.8,0 L 111,373 c -0.9,-0.7 -2,-1.1 -3.2,-1.3 v -4.5 c 0,-0.7 -0.6,-1.2 -1.2,-1.2 -0.6,0 -1.2,0.6 -1.2,1.2 v 4.5 c -1.2,0.2 -2.3,0.7 -3.2,1.3 l -2.2,-2.2 c -0.5,-0.5 -1.3,-0.5 -1.8,0 -0.5,0.5 -0.5,1.3 0,1.8 l 2.2,2.2 c -0.5,0.7 -0.9,1.5 -1.2,2.4 -0.9,0.2 -1.8,0.5 -2.6,0.9 -2.1,-3.1 -5.6,-4.9 -9.4,-4.9 -6.3,0 -11.5,5.1 -11.5,11.5 0,0.6 0.1,1.3 0.2,1.9 -4.4,0.2 -8,3.9 -8,8.3 0,4.6 3.7,8.4 8.4,8.4 h 30.6 c 4.6,0 8.4,-3.7 8.4,-8.4 0,-3.5 -2.2,-6.6 -5.4,-7.8 0,-0.3 0,-0.5 0,-0.8 0.5,-0.2 0.9,-0.5 1.3,-0.7 l 2.2,2.2 c 0.2,0.2 0.6,0.4 0.9,0.4 0.3,0 0.6,-0.1 0.9,-0.4 0.5,-0.5 0.5,-1.3 0,-1.8 l -2.2,-2.2 c 0.7,-0.9 1.1,-2 1.3,-3.2 h 4.5 c 0.7,0 1.2,-0.6 1.2,-1.2 0,-0.6 -0.7,-1.4 -1.4,-1.4 z m -6,16.9 c 0,3.2 -2.6,5.9 -5.9,5.9 H 76.1 c -3.2,0 -5.9,-2.6 -5.9,-5.9 0,-3.2 2.6,-5.9 5.9,-5.9 H 79 l -0.5,-1.6 c -0.3,-0.9 -0.4,-1.8 -0.4,-2.7 0,-4.9 4,-9 9,-9 3.3,0 6.4,1.8 7.9,4.8 l 0.7,1.3 1.2,-0.9 c 0.6,-0.5 1.3,-0.8 2,-1 0.6,-0.2 1.2,-0.3 1.9,-0.3 0.2,0 0.4,0 0.6,0 2.7,0.3 5,2.2 5.6,4.8 0.1,0.5 0.2,1.1 0.2,1.6 0,0.3 0,0.6 -0.1,0.9 0,0.2 -0.1,0.5 -0.1,0.7 l -0.3,1.3 1.3,0.3 c 2.7,0.5 4.6,3 4.6,5.7 z m -3.2,-11.3 c -1,-3.4 -3.9,-6 -7.6,-6.5 0.8,-1.8 2.6,-3 4.7,-3 2.9,0 5.2,2.3 5.2,5.2 0.1,1.8 -0.9,3.4 -2.3,4.3 z"
         id="path4732" />
    </g>
  </g>
</svg>
