<?xml version="1.0" encoding="UTF-8" standalone="no"?>
<!-- Created with Inkscape (http://www.inkscape.org/) -->

<svg
   xmlns:dc="http://purl.org/dc/elements/1.1/"
   xmlns:cc="http://creativecommons.org/ns#"
   xmlns:rdf="http://www.w3.org/1999/02/22-rdf-syntax-ns#"
   xmlns:svg="http://www.w3.org/2000/svg"
   xmlns="http://www.w3.org/2000/svg"
   xmlns:sodipodi="http://sodipodi.sourceforge.net/DTD/sodipodi-0.dtd"
   xmlns:inkscape="http://www.inkscape.org/namespaces/inkscape"
   width="66.466019mm"
   height="51.590065mm"
   viewBox="0 0 66.466018 51.590063"
   version="1.1"
   id="svg4977"
   sodipodi:docname="drawing14.svg"
   inkscape:version="0.92.3 (2405546, 2018-03-11)">
  <defs
     id="defs4971" />
  <sodipodi:namedview
     id="base"
     pagecolor="#ffffff"
     bordercolor="#666666"
     borderopacity="1.0"
     inkscape:pageopacity="0.0"
     inkscape:pageshadow="2"
     inkscape:zoom="0.35"
     inkscape:cx="15.249485"
     inkscape:cy="-249.70976"
     inkscape:document-units="mm"
     inkscape:current-layer="layer1"
     showgrid="false"
     inkscape:window-width="1920"
     inkscape:window-height="1017"
     inkscape:window-x="2552"
     inkscape:window-y="352"
     inkscape:window-maximized="1"
     fit-margin-top="0"
     fit-margin-left="0"
     fit-margin-right="0"
     fit-margin-bottom="0" />
  <metadata
     id="metadata4974">
    <rdf:RDF>
      <cc:Work
         rdf:about="">
        <dc:format>image/svg+xml</dc:format>
        <dc:type
           rdf:resource="http://purl.org/dc/dcmitype/StillImage" />
        <dc:title></dc:title>
      </cc:Work>
    </rdf:RDF>
  </metadata>
  <g
     inkscape:label="Layer 1"
     inkscape:groupmode="layer"
     id="layer1"
     transform="translate(-126.056,-24.029929)">
    <g
       id="g4630"
       transform="matrix(1.405104,0,0,1.1094638,-420.38895,-383.91991)">
      <path
         style="fill:#444444"
         inkscape:connector-curvature="0"
         d="m 399.1,399.5 c 0,0 0,0 0,0 -0.7,0 -1.3,0.6 -1.2,1.3 v 8 c 0,0.7 0.6,1.2 1.2,1.2 0,0 0,0 0,0 0.7,0 1.2,-0.6 1.2,-1.3 v -8 c 0,-0.6 -0.6,-1.2 -1.2,-1.2 z"
         id="path4614" />
      <path
         style="fill:#444444"
         inkscape:connector-curvature="0"
         d="m 410,399.5 c 0,0 0,0 0,0 -0.7,0 -1.3,0.6 -1.2,1.3 v 8 c 0,0.7 0.6,1.2 1.2,1.2 0,0 0,0 0,0 0.7,0 1.2,-0.6 1.2,-1.3 v -8 c 0.1,-0.7 -0.5,-1.2 -1.2,-1.2 z"
         id="path4616" />
      <path
         style="fill:#444444"
         inkscape:connector-curvature="0"
         d="m 415.5,399.4 c 0,0 0,0 0,0 -0.7,0 -1.3,0.6 -1.2,1.3 v 12.2 c 0,0.7 0.6,1.2 1.2,1.2 0,0 0,0 0,0 0.7,0 1.2,-0.6 1.2,-1.3 v -12.2 c 0,-0.6 -0.5,-1.2 -1.2,-1.2 z"
         id="path4618" />
      <path
         style="fill:#444444"
         inkscape:connector-curvature="0"
         d="m 404.5,399.5 c 0,0 0,0 0,0 -0.7,0 -1.3,0.6 -1.2,1.3 V 413 c 0,0.7 0.6,1.2 1.2,1.2 0,0 0,0 0,0 0.7,0 1.2,-0.6 1.2,-1.3 v -12.2 c 0.1,-0.7 -0.5,-1.2 -1.2,-1.2 z"
         id="path4620" />
      <path
         style="fill:#444444"
         inkscape:connector-curvature="0"
         d="m 421,399.4 c -0.7,0 -1.2,0.6 -1.2,1.3 v 8 c 0,0.7 0.6,1.2 1.2,1.2 0,0 0,0 0,0 0.7,0 1.2,-0.6 1.2,-1.3 v -8 c 0,-0.6 -0.5,-1.2 -1.2,-1.2 z"
         id="path4622" />
      <path
         style="fill:#444444"
         inkscape:connector-curvature="0"
         d="m 426.1,399.4 c 0,0 0,0 0,0 -0.7,0 -1.3,0.6 -1.2,1.3 v 4 c 0,0.7 0.6,1.2 1.2,1.2 0,0 0,0 0,0 0.7,0 1.2,-0.6 1.2,-1.3 v -4 c 0.1,-0.6 -0.5,-1.2 -1.2,-1.2 z"
         id="path4624" />
      <path
         style="fill:#444444"
         inkscape:connector-curvature="0"
         d="m 430.9,381.7 c 0,-0.3 0.1,-0.7 0.1,-1 0,-5 -4,-9 -9,-9 -1.5,0 -2.9,0.4 -4.2,1 -2.1,-3.1 -5.6,-5 -9.5,-5 -6.3,0 -11.5,5.1 -11.5,11.4 0,0.6 0,1.3 0.1,1.9 -4.4,0.2 -8,3.8 -8,8.3 0,2.2 0.9,4.3 2.4,5.9 1.6,1.6 3.7,2.5 5.9,2.5 l 30.6,0.1 v 0 c 4.6,0 8.3,-3.7 8.4,-8.3 0.1,-3.5 -2.1,-6.6 -5.3,-7.8 z m -3,13.7 v 1.2 -1.2 l -30.7,-0.1 c -1.6,0 -3,-0.6 -4.1,-1.7 -1.1,-1.1 -1.7,-2.6 -1.7,-4.1 0,-3.2 2.6,-5.8 5.9,-5.8 h 2.9 l -0.5,-1.6 c -0.3,-0.9 -0.4,-1.8 -0.4,-2.7 0,-4.9 4,-8.9 9,-8.9 3.3,0 6.4,1.9 7.9,4.8 l 0.7,1.3 1.2,-0.9 c 1.1,-0.8 2.5,-1.3 3.9,-1.3 3.6,0 6.5,2.9 6.5,6.5 0,0.5 -0.1,1 -0.2,1.6 l -0.3,1.3 1.3,0.3 c 2.7,0.6 4.6,3 4.6,5.7 -0.1,2.9 -2.8,5.6 -6,5.6 z"
         id="path4626" />
      <path
         style="fill:#444444"
         inkscape:connector-curvature="0"
         d="m 415.1,382.5 c 0,0 0,0 0,0 h -3 l 1.8,-3.4 c 0.3,-0.6 0.1,-1.4 -0.5,-1.7 -0.6,-0.3 -1.4,-0.1 -1.7,0.5 l -2.7,5.2 c -0.2,0.4 -0.2,0.9 0,1.2 0.2,0.4 0.6,0.6 1.1,0.6 0,0 0,0 0,0 h 3 L 411,389 c -0.3,0.6 -0.1,1.4 0.5,1.7 0.2,0.1 0.4,0.1 0.6,0.1 0.5,0 0.9,-0.2 1.1,-0.7 l 3.1,-5.9 c 0.2,-0.4 0.2,-0.9 0,-1.2 -0.4,-0.2 -0.8,-0.5 -1.2,-0.5 z"
         id="path4628" />
    </g>
  </g>
</svg>
