<?xml version="1.0" encoding="UTF-8" standalone="no"?>
<!-- Created with Inkscape (http://www.inkscape.org/) -->

<svg
   xmlns:dc="http://purl.org/dc/elements/1.1/"
   xmlns:cc="http://creativecommons.org/ns#"
   xmlns:rdf="http://www.w3.org/1999/02/22-rdf-syntax-ns#"
   xmlns:svg="http://www.w3.org/2000/svg"
   xmlns="http://www.w3.org/2000/svg"
   xmlns:sodipodi="http://sodipodi.sourceforge.net/DTD/sodipodi-0.dtd"
   xmlns:inkscape="http://www.inkscape.org/namespaces/inkscape"
   width="68.147545mm"
   height="51.922905mm"
   viewBox="0 0 68.147544 51.922902"
   version="1.1"
   id="svg4977"
   sodipodi:docname="drawing18.svg"
   inkscape:version="0.92.3 (2405546, 2018-03-11)">
  <defs
     id="defs4971" />
  <sodipodi:namedview
     id="base"
     pagecolor="#ffffff"
     bordercolor="#666666"
     borderopacity="1.0"
     inkscape:pageopacity="0.0"
     inkscape:pageshadow="2"
     inkscape:zoom="0.35"
     inkscape:cx="-767.20502"
     inkscape:cy="875.77307"
     inkscape:document-units="mm"
     inkscape:current-layer="layer1"
     showgrid="false"
     inkscape:window-width="1920"
     inkscape:window-height="1017"
     inkscape:window-x="2552"
     inkscape:window-y="352"
     inkscape:window-maximized="1"
     fit-margin-top="0"
     fit-margin-left="0"
     fit-margin-right="0"
     fit-margin-bottom="0" />
  <metadata
     id="metadata4974">
    <rdf:RDF>
      <cc:Work
         rdf:about="">
        <dc:format>image/svg+xml</dc:format>
        <dc:type
           rdf:resource="http://purl.org/dc/dcmitype/StillImage" />
        <dc:title></dc:title>
      </cc:Work>
    </rdf:RDF>
  </metadata>
  <g
     inkscape:label="Layer 1"
     inkscape:groupmode="layer"
     id="layer1"
     transform="translate(-333.08042,-321.48107)">
    <g
       id="g4680"
       transform="matrix(1.405104,0,0,1.1094638,-59.084105,-239.24193)">
      <path
         style="fill:#444444"
         inkscape:connector-curvature="0"
         d="m 327.6,517 c 0,-3 -1.2,-5.9 -3.3,-8 -1.5,-1.5 -3.5,-2.6 -5.6,-3.1 l -2.4,-0.5 1,2.3 c 0.9,2 0.9,4.4 0.1,6.4 -1.5,-1.2 -3.4,-1.8 -5.4,-1.8 -1.5,0 -2.9,0.4 -4.2,1.1 -2.1,-3.1 -5.6,-4.9 -9.4,-4.9 -6.3,0 -11.5,5.1 -11.5,11.5 0,0.6 0.1,1.3 0.2,1.9 -4.4,0.2 -8,3.9 -8,8.3 0,4.6 3.7,8.4 8.4,8.4 h 30.6 c 4.6,0 8.4,-3.7 8.4,-8.4 0,-1.9 -0.7,-3.7 -1.8,-5.1 1.8,-2.4 2.9,-5.2 2.9,-8.1 z m -9.7,18.8 h -30.6 c -3.2,0 -5.9,-2.6 -5.9,-5.9 0,-3.2 2.6,-5.9 5.9,-5.9 h 2.9 l -0.5,-1.6 c -0.3,-0.9 -0.4,-1.8 -0.4,-2.7 0,-4.9 4,-9 9,-9 3.3,0 6.4,1.8 7.9,4.8 l 0.7,1.3 1.2,-0.9 c 1.1,-0.9 2.5,-1.3 3.9,-1.3 1.5,0 3,0.5 4.1,1.5 0.7,0.5 1.2,1.2 1.6,1.9 0.5,0.9 0.8,2 0.8,3.1 0,0.5 -0.1,1 -0.2,1.6 l -0.3,1.3 1.3,0.3 c 0.5,0.1 0.9,0.3 1.4,0.5 0.8,0.4 1.5,1 2,1.7 0.8,1 1.2,2.2 1.2,3.5 -0.1,3.2 -2.8,5.8 -6,5.8 z m 4.8,-12.7 c -0.6,-0.4 -1.2,-0.7 -1.8,-1 0,-0.3 0.1,-0.7 0.1,-1 0,-2 -0.6,-3.8 -1.7,-5.2 1.1,-2.1 1.6,-4.5 1.2,-6.8 0.8,0.4 1.5,1 2.2,1.6 1.7,1.7 2.6,3.9 2.6,6.3 -0.2,2.3 -1,4.4 -2.6,6.1 z"
         id="path4660" />
      <path
         style="fill:#444444"
         inkscape:connector-curvature="0"
         d="m 310,540.3 c -0.7,0 -1.2,0.6 -1.2,1.2 v 2 c 0,0.7 0.6,1.2 1.2,1.2 0.7,0 1.2,-0.6 1.2,-1.2 v -2 c 0,-0.6 -0.5,-1.2 -1.2,-1.2 z"
         id="path4662" />
      <path
         style="fill:#444444"
         inkscape:connector-curvature="0"
         d="m 310,546.1 c -0.7,0 -1.2,0.6 -1.2,1.3 0,0.7 0.6,1.2 1.2,1.2 0.7,0 1.2,-0.6 1.2,-1.2 v -0.1 c 0,-0.7 -0.5,-1.2 -1.2,-1.2 z"
         id="path4664" />
      <path
         style="fill:#444444"
         inkscape:connector-curvature="0"
         d="m 310,549.7 c -0.7,0 -1.2,0.6 -1.2,1.3 0,0.7 0.6,1.2 1.2,1.2 0.7,0 1.2,-0.6 1.2,-1.2 v -0.1 c 0,-0.7 -0.5,-1.2 -1.2,-1.2 z"
         id="path4666" />
      <path
         style="fill:#444444"
         inkscape:connector-curvature="0"
         d="m 288.9,546.1 c -0.7,0 -1.2,0.6 -1.2,1.3 0,0.7 0.6,1.2 1.2,1.2 0.7,0 1.2,-0.6 1.2,-1.2 v -0.1 c 0,-0.7 -0.5,-1.2 -1.2,-1.2 z"
         id="path4668" />
      <path
         style="fill:#444444"
         inkscape:connector-curvature="0"
         d="m 299,540.3 c -0.7,0 -1.2,0.6 -1.2,1.2 v 2 c 0,0.7 0.6,1.2 1.2,1.2 0.7,0 1.2,-0.6 1.2,-1.2 v -2 c 0.1,-0.6 -0.5,-1.2 -1.2,-1.2 z"
         id="path4670" />
      <path
         style="fill:#444444"
         inkscape:connector-curvature="0"
         d="m 293.7,540.6 c -0.7,0 -1.2,0.6 -1.2,1.2 v 3.8 c 0,0.7 0.6,1.2 1.2,1.2 0.7,0 1.2,-0.6 1.2,-1.2 v -3.8 c 0.1,-0.7 -0.5,-1.2 -1.2,-1.2 z"
         id="path4672" />
      <path
         style="fill:#444444"
         inkscape:connector-curvature="0"
         d="m 315.4,540.3 c -0.7,0 -1.2,0.6 -1.2,1.2 v 1.2 c 0,0.7 0.6,1.2 1.2,1.2 0.6,0 1.2,-0.6 1.2,-1.2 v -1.2 c 0,-0.6 -0.5,-1.2 -1.2,-1.2 z"
         id="path4674" />
      <path
         style="fill:#444444"
         inkscape:connector-curvature="0"
         d="m 288.9,540.3 c -0.7,0 -1.2,0.6 -1.2,1.2 v 2.4 c 0,0.7 0.6,1.2 1.2,1.2 0.7,0 1.2,-0.6 1.2,-1.2 v -2.4 c 0,-0.6 -0.5,-1.2 -1.2,-1.2 z"
         id="path4676" />
      <path
         style="fill:#444444"
         inkscape:connector-curvature="0"
         d="m 304.6,540.3 c -0.7,0 -1.2,0.6 -1.2,1.2 v 4 c 0,0.7 0.6,1.2 1.2,1.2 0.7,0 1.2,-0.6 1.2,-1.2 v -4 c 0,-0.6 -0.5,-1.2 -1.2,-1.2 z"
         id="path4678" />
    </g>
  </g>
</svg>
