<?xml version="1.0" encoding="UTF-8" standalone="no"?>
<!-- Created with Inkscape (http://www.inkscape.org/) -->

<svg
   xmlns:dc="http://purl.org/dc/elements/1.1/"
   xmlns:cc="http://creativecommons.org/ns#"
   xmlns:rdf="http://www.w3.org/1999/02/22-rdf-syntax-ns#"
   xmlns:svg="http://www.w3.org/2000/svg"
   xmlns="http://www.w3.org/2000/svg"
   xmlns:sodipodi="http://sodipodi.sourceforge.net/DTD/sodipodi-0.dtd"
   xmlns:inkscape="http://www.inkscape.org/namespaces/inkscape"
   width="210mm"
   height="297mm"
   viewBox="0 0 210 297"
   version="1.1"
   id="svg8"
   inkscape:version="0.92.3 (2405546, 2018-03-11)">
  <defs
     id="defs2" />
  <sodipodi:namedview
     id="base"
     pagecolor="#ffffff"
     bordercolor="#666666"
     borderopacity="1.0"
     inkscape:pageopacity="0.0"
     inkscape:pageshadow="2"
     inkscape:zoom="0.35"
     inkscape:cx="-168.57143"
     inkscape:cy="1017.1429"
     inkscape:document-units="mm"
     inkscape:current-layer="layer1"
     showgrid="false"
     inkscape:window-width="2560"
     inkscape:window-height="1377"
     inkscape:window-x="-8"
     inkscape:window-y="-8"
     inkscape:window-maximized="1" />
  <metadata
     id="metadata5">
    <rdf:RDF>
      <cc:Work
         rdf:about="">
        <dc:format>image/svg+xml</dc:format>
        <dc:type
           rdf:resource="http://purl.org/dc/dcmitype/StillImage" />
        <dc:title></dc:title>
      </cc:Work>
    </rdf:RDF>
  </metadata>
  <g
     inkscape:label="Layer 1"
     inkscape:groupmode="layer"
     id="layer1">
    <g
       id="g4522"
       transform="matrix(1.405104,0,0,1.1094638,-582.45346,-432.14172)">
	<path
   style="fill:#444444"
   inkscape:connector-curvature="0"
   d="m 506,650.1 c -2,0 -3.5,1.6 -3.5,3.5 0,2 1.6,3.5 3.5,3.5 2,0 3.5,-1.6 3.5,-3.5 0,-1.9 -1.6,-3.5 -3.5,-3.5 z m 0,4.5 c -0.6,0 -1,-0.5 -1,-1 0,-0.6 0.5,-1 1,-1 0.6,0 1,0.5 1,1 0,0.6 -0.5,1 -1,1 z"
   id="path4518" />

	<path
   style="fill:#444444"
   inkscape:connector-curvature="0"
   d="m 532,655 h -16.4 c -0.7,0 -1.2,0.6 -1.2,1.2 v 24.6 c 0,0.7 0.6,1.2 1.2,1.2 0.7,0 1.2,-0.6 1.2,-1.2 v -11.1 h 9.2 c 0.7,0 1.2,-0.6 1.2,-1.2 0,-0.7 -0.6,-1.2 -1.2,-1.2 h -9.2 v -9.7 H 532 c 0.7,0 1.2,-0.6 1.2,-1.2 0.1,-0.8 -0.5,-1.4 -1.2,-1.4 z"
   id="path4520" />

</g>
    <g
       id="g4528"
       transform="matrix(1.405104,0,0,1.1094638,-582.45346,-432.14172)">
	<path
   style="fill:#444444"
   inkscape:connector-curvature="0"
   d="m 531.7,538.9 c -2.1,2.1 -4.8,3.2 -7.8,3.2 -6.1,0 -11,-4.9 -11,-11 0,-6.1 4.9,-11 11,-11 2.9,0 5.7,1.1 7.8,3.2 0.5,0.5 1.3,0.5 1.8,0 0.5,-0.5 0.5,-1.3 0,-1.8 -2.5,-2.6 -5.9,-4 -9.5,-4 -7.4,0 -13.5,6.1 -13.5,13.5 0,7.4 6.1,13.5 13.5,13.5 3.6,0 7,-1.4 9.5,-4 0.5,-0.5 0.5,-1.3 0,-1.8 -0.5,-0.3 -1.3,-0.3 -1.8,0.2 z"
   id="path4524" />

	<path
   style="fill:#444444"
   inkscape:connector-curvature="0"
   d="m 505.3,512.9 c -2,0 -3.5,1.6 -3.5,3.5 0,2 1.6,3.5 3.5,3.5 2,0 3.5,-1.6 3.5,-3.5 0.1,-1.9 -1.5,-3.5 -3.5,-3.5 z m 0,4.6 c -0.6,0 -1,-0.5 -1,-1 0,-0.6 0.5,-1 1,-1 0.6,0 1,0.5 1,1 0.1,0.5 -0.4,1 -1,1 z"
   id="path4526" />

</g>
    <g
       id="g4542"
       transform="matrix(1.405104,0,0,1.1094638,-582.45346,-432.14172)">
	<path
   style="fill:#444444"
   inkscape:connector-curvature="0"
   d="m 513.4,390.3 c -0.7,0 -1.2,0.6 -1.2,1.2 0,0.7 0.6,1.2 1.2,1.2 h 18.9 c 0.7,0 1.2,-0.6 1.2,-1.2 0,-0.7 -0.6,-1.2 -1.2,-1.2 z"
   id="path4530" />

	<path
   style="fill:#444444"
   inkscape:connector-curvature="0"
   d="m 542.6,390.3 h -4.8 c -0.7,0 -1.2,0.6 -1.2,1.2 0,0.7 0.6,1.2 1.2,1.2 h 4.8 c 0.7,0 1.2,-0.6 1.2,-1.2 0,-0.7 -0.5,-1.2 -1.2,-1.2 z"
   id="path4532" />

	<path
   style="fill:#444444"
   inkscape:connector-curvature="0"
   d="m 529.2,385.6 c 0,0.7 0.6,1.2 1.2,1.2 h 4.8 c 0.7,0 1.2,-0.6 1.2,-1.2 0,-0.7 -0.6,-1.2 -1.2,-1.2 h -4.8 c -0.7,0 -1.2,0.6 -1.2,1.2 z"
   id="path4534" />

	<path
   style="fill:#444444"
   inkscape:connector-curvature="0"
   d="m 524.8,381.3 h 4.8 c 0.7,0 1.2,-0.6 1.2,-1.2 0,-0.7 -0.6,-1.2 -1.2,-1.2 h -4.8 c -0.7,0 -1.2,0.6 -1.2,1.2 -0.1,0.6 0.5,1.2 1.2,1.2 z"
   id="path4536" />

	<path
   style="fill:#444444"
   inkscape:connector-curvature="0"
   d="M 538.3,396 H 513 c 0,0 0,0 0,0 0,0 -0.1,0 -0.1,0 -3.1,0 -5.9,1.5 -7.7,3.9 -2.6,3.5 -1.8,8.5 1.7,11 2.9,2.1 7,1.5 9.2,-1.5 1.8,-2.5 1.2,-5.9 -1.2,-7.7 -2.1,-1.5 -5,-1 -6.5,1 -1.3,1.8 -0.9,4.3 0.9,5.5 0.7,0.5 1.4,0.7 2.2,0.6 0.7,0 1.2,-0.6 1.2,-1.3 0,-0.7 -0.6,-1.2 -1.3,-1.2 -0.1,0 -0.4,0 -0.6,-0.2 -0.7,-0.5 -0.8,-1.4 -0.3,-2.1 0.7,-1 2,-1.2 3,-0.5 1.3,1 1.6,2.9 0.7,4.2 -1.3,1.8 -3.9,2.2 -5.7,0.9 -2.4,-1.7 -2.9,-5.1 -1.2,-7.5 1.3,-1.8 3.5,-2.9 5.8,-2.9 0,0 0,0 0,0 0,0 0,0 0,0 h 25.3 c 0.7,0 1.2,-0.6 1.2,-1.2 0,-0.4 -0.6,-1 -1.3,-1 z"
   id="path4538" />

	<path
   style="fill:#444444"
   inkscape:connector-curvature="0"
   d="m 524.6,386.9 c 0.7,0 1.2,-0.6 1.2,-1.2 0,-0.7 -0.6,-1.2 -1.2,-1.2 h -21.4 c 0,0 0,0 0,0 0,0 -0.1,0 -0.1,0 -2.3,0 -4.4,-1.1 -5.7,-2.9 -1.7,-2.4 -1.2,-5.8 1.2,-7.5 0.9,-0.6 2,-0.9 3,-0.7 1.1,0.2 2,0.7 2.6,1.6 1,1.3 0.7,3.2 -0.7,4.2 -1,0.7 -2.3,0.5 -3,-0.5 -0.5,-0.7 -0.3,-1.6 0.3,-2.1 0,0 0,0 0,0 0.1,-0.1 0.2,-0.1 0.3,-0.2 0.7,-0.2 1.1,-0.8 0.9,-1.5 -0.1,-0.6 -0.6,-1 -1.2,-1 -0.1,0 -0.2,0 -0.3,0 -0.5,0.1 -0.9,0.3 -1.3,0.6 0,0 0,0 0,0 -1.8,1.3 -2.2,3.8 -0.9,5.5 1.5,2.1 4.4,2.5 6.5,1 2.5,-1.8 3,-5.2 1.2,-7.7 -1,-1.4 -2.6,-2.3 -4.3,-2.6 -0.3,-0.1 -0.7,-0.1 -1,-0.1 -1.4,0 -2.7,0.4 -3.8,1.3 -3.5,2.6 -4.3,7.5 -1.7,11 1.8,2.5 4.7,3.9 7.7,3.9 0,0 0.1,0 0.1,0 0,0 0,0 0,0 h 21.6 z"
   id="path4540" />

</g>
    <g
       id="g4564"
       transform="matrix(1.405104,0,0,1.1094638,-582.45346,-432.14172)">
	<path
   style="fill:#444444"
   inkscape:connector-curvature="0"
   d="m 521.2,265.2 h -8 c -0.7,0 -1.2,0.6 -1.2,1.2 0,0.6 0.6,1.2 1.2,1.2 h 8 c 0.7,0 1.2,-0.6 1.2,-1.2 0,-0.6 -0.5,-1.2 -1.2,-1.2 z"
   id="path4544" />

	<path
   style="fill:#444444"
   inkscape:connector-curvature="0"
   d="m 519,270.1 h -5.8 c -0.7,0 -1.2,0.6 -1.2,1.2 0,0.7 0.6,1.2 1.2,1.2 h 5.8 c 0.7,0 1.2,-0.6 1.2,-1.2 0,-0.6 -0.5,-1.2 -1.2,-1.2 z"
   id="path4546" />

	<path
   style="fill:#444444"
   inkscape:connector-curvature="0"
   d="m 519,275.1 h -5.8 c -0.7,0 -1.2,0.6 -1.2,1.2 0,0.6 0.6,1.2 1.2,1.2 h 5.8 c 0.7,0 1.2,-0.6 1.2,-1.2 0,-0.6 -0.5,-1.2 -1.2,-1.2 z"
   id="path4548" />

	<path
   style="fill:#444444"
   inkscape:connector-curvature="0"
   d="m 525.9,260.3 h -10.3 c -0.7,0 -1.2,0.6 -1.2,1.2 0,0.7 0.6,1.2 1.2,1.2 h 10.3 c 0.7,0 1.2,-0.6 1.2,-1.2 0.1,-0.7 -0.5,-1.2 -1.2,-1.2 z"
   id="path4550" />

	<path
   style="fill:#444444"
   inkscape:connector-curvature="0"
   d="m 528.5,255.4 h -15.3 c -0.7,0 -1.2,0.6 -1.2,1.2 0,0.7 0.6,1.2 1.2,1.2 h 15.3 c 0.7,0 1.2,-0.6 1.2,-1.2 0,-0.7 -0.6,-1.2 -1.2,-1.2 z"
   id="path4552" />

	<path
   style="fill:#444444"
   inkscape:connector-curvature="0"
   d="M 531.9,250.4 H 515 c -0.7,0 -1.2,0.6 -1.2,1.2 0,0.6 0.6,1.2 1.2,1.2 h 16.9 c 0.7,0 1.2,-0.6 1.2,-1.2 0,-0.6 -0.5,-1.2 -1.2,-1.2 z"
   id="path4554" />

	<path
   style="fill:#444444"
   inkscape:connector-curvature="0"
   d="m 513.2,248 h 15.9 c 0.7,0 1.2,-0.6 1.2,-1.2 0,-0.7 -0.6,-1.2 -1.2,-1.2 h -15.9 c -0.7,0 -1.2,0.6 -1.2,1.2 -0.1,0.6 0.5,1.2 1.2,1.2 z"
   id="path4556" />

	<path
   style="fill:#444444"
   inkscape:connector-curvature="0"
   d="M 538.6,240.6 H 515 c -0.7,0 -1.2,0.6 -1.2,1.2 0,0.6 0.6,1.2 1.2,1.2 h 23.7 c 0.7,0 1.2,-0.6 1.2,-1.2 0,-0.6 -0.6,-1.2 -1.3,-1.2 z"
   id="path4558" />

	<path
   style="fill:#444444"
   inkscape:connector-curvature="0"
   d="m 533.1,236.9 c 0,-0.7 -0.6,-1.2 -1.2,-1.2 h -25.8 c -0.7,0 -1.2,0.6 -1.2,1.2 0,0.7 0.6,1.2 1.2,1.2 h 25.8 c 0.7,0 1.2,-0.5 1.2,-1.2 z"
   id="path4560" />

	<path
   style="fill:#444444"
   inkscape:connector-curvature="0"
   d="m 528,232 c 0,-0.7 -0.6,-1.2 -1.2,-1.2 H 499 c -0.7,0 -1.2,0.6 -1.2,1.2 0,0.7 0.6,1.2 1.2,1.2 h 27.7 c 0.7,0 1.3,-0.5 1.3,-1.2 z"
   id="path4562" />

</g>
    <path
       style="fill:#444444;stroke-width:1.248564"
       inkscape:connector-curvature="0"
       d="m 168.1531,-285.91439 h -42.99619 c -6.46347,0 -11.80287,-4.10502 -11.80287,-9.3195 0,-4.99258 5.05838,-9.0976 11.24083,-9.20855 -0.14051,-0.66567 -0.28102,-1.33135 -0.28102,-2.10798 0,-6.98962 7.16603,-12.75883 16.1587,-12.75883 5.33939,0 10.25726,2.10798 13.20798,5.43637 1.82663,-0.77662 3.79378,-1.22041 5.90143,-1.22041 7.02552,0 12.64594,4.43786 12.64594,9.98518 0,0.33283 0,0.77662 -0.14051,1.10946 4.49633,1.33136 7.58756,4.77069 7.58756,8.65382 0.14051,5.32542 -5.05837,9.43044 -11.52185,9.43044 z m -43.1367,-15.75439 c -4.49633,0 -8.29011,2.88461 -8.29011,6.54584 0,3.66123 3.65327,6.54584 8.29011,6.54584 h 42.99619 c 4.49633,0 8.29011,-2.88461 8.29011,-6.54584 0,-2.99555 -2.6697,-5.65827 -6.46348,-6.32394 l -1.82663,-0.33284 0.42153,-1.44231 c 0.14051,-0.55473 0.28102,-1.22041 0.28102,-1.77514 0,-3.99407 -4.0748,-7.21151 -9.13318,-7.21151 -1.96714,0 -3.93429,0.55473 -5.4799,1.4423 l -1.68613,0.99852 -0.98357,-1.44231 c -2.24817,-3.21744 -6.46348,-5.32542 -11.10032,-5.32542 -6.88501,0 -12.64594,4.43785 -12.64594,9.98517 0,0.99852 0.14051,1.99704 0.56204,2.99555 l 0.70256,1.77515 h -3.9343 z"
       id="path4566" />
    <g
       id="g4592"
       transform="matrix(1.405104,0,0,1.1094638,-582.45346,-432.14172)">
	<path
   style="fill:#444444"
   inkscape:connector-curvature="0"
   d="m 432.3,670.5 c -0.7,-11.3 -8.4,-19.6 -18.5,-20.3 v -1.1 c 0,-0.7 -0.6,-1.2 -1.2,-1.2 -0.7,0 -1.2,0.6 -1.2,1.2 v 1.1 c -10.1,0.6 -17.8,8.9 -18.5,20.3 l -0.1,1.3 h 2.5 l 0.2,-1 c 0.3,-1.6 1.7,-2.8 3.3,-2.8 1.6,0 3,1.2 3.3,2.8 l 0.2,1 h 2.2 l 0.2,-1 c 0.3,-1.6 1.7,-2.8 3.3,-2.8 1.6,0 3,1.2 3.3,2.8 l 0.1,0.3 v 14.3 c 0,1.2 -1,2.2 -2.2,2.2 -1.2,0 -2.2,-1 -2.2,-2.2 v -2 c 0,-0.7 -0.6,-1.2 -1.2,-1.2 -0.7,0 -1.2,0.6 -1.2,1.2 v 2 c 0,2.6 2.1,4.7 4.7,4.7 2.6,0 4.7,-2.1 4.7,-4.7 v -14.3 l 0.1,-0.3 c 0.3,-1.6 1.7,-2.8 3.3,-2.8 1.6,0 3,1.2 3.3,2.8 l 0.2,1 h 2.2 l 0.2,-1 c 0.3,-1.6 1.7,-2.8 3.3,-2.8 1.6,0 3,1.2 3.3,2.8 l 0.2,1 h 2.5 z m -5.9,-5 c -1.8,0 -3.5,0.9 -4.6,2.2 -1.1,-1.4 -2.7,-2.2 -4.6,-2.2 -1.8,0 -3.5,0.9 -4.6,2.2 -1.1,-1.4 -2.7,-2.2 -4.6,-2.2 -1.8,0 -3.5,0.9 -4.6,2.2 -1.1,-1.4 -2.7,-2.2 -4.6,-2.2 -1,0 -1.9,0.2 -2.7,0.7 2.1,-8.1 8.6,-13.5 16.5,-13.5 7.9,0 14.4,5.5 16.5,13.5 -0.8,-0.4 -1.7,-0.7 -2.7,-0.7 z"
   id="path4568" />

	<path
   style="fill:#444444"
   inkscape:connector-curvature="0"
   d="m 395.8,649.1 c 0.7,0 1.2,-0.6 1.2,-1.2 v -6.4 c 0,-0.7 -0.6,-1.2 -1.2,-1.2 -0.6,0 -1.2,0.6 -1.2,1.2 v 6.4 c -0.1,0.6 0.5,1.2 1.2,1.2 z"
   id="path4570" />

	<path
   style="fill:#444444"
   inkscape:connector-curvature="0"
   d="m 401.4,645.9 c 0.7,0 1.2,-0.6 1.2,-1.2 v -3.2 c 0,-0.7 -0.6,-1.2 -1.2,-1.2 -0.7,0 -1.2,0.6 -1.2,1.2 v 3.2 c -0.1,0.6 0.5,1.2 1.2,1.2 z"
   id="path4572" />

	<path
   style="fill:#444444"
   inkscape:connector-curvature="0"
   d="m 407,649.1 c 0.7,0 1.2,-0.6 1.2,-1.2 v -6.4 c 0,-0.7 -0.6,-1.2 -1.2,-1.2 -0.7,0 -1.2,0.6 -1.2,1.2 v 6.4 c -0.1,0.6 0.5,1.2 1.2,1.2 z"
   id="path4574" />

	<path
   style="fill:#444444"
   inkscape:connector-curvature="0"
   d="m 412.6,645.9 c 0.7,0 1.2,-0.6 1.2,-1.2 v -3.2 c 0,-0.7 -0.6,-1.2 -1.2,-1.2 -0.7,0 -1.2,0.6 -1.2,1.2 v 3.2 c -0.1,0.6 0.5,1.2 1.2,1.2 z"
   id="path4576" />

	<path
   style="fill:#444444"
   inkscape:connector-curvature="0"
   d="m 418.2,649.1 c 0.7,0 1.2,-0.6 1.2,-1.2 v -6.4 c 0,-0.7 -0.6,-1.2 -1.2,-1.2 -0.6,0 -1.2,0.6 -1.2,1.2 v 6.4 c -0.1,0.6 0.5,1.2 1.2,1.2 z"
   id="path4578" />

	<path
   style="fill:#444444"
   inkscape:connector-curvature="0"
   d="m 423.8,645.9 c 0.7,0 1.2,-0.6 1.2,-1.2 v -3.2 c 0,-0.7 -0.6,-1.2 -1.2,-1.2 -0.7,0 -1.2,0.6 -1.2,1.2 v 3.2 c 0,0.6 0.5,1.2 1.2,1.2 z"
   id="path4580" />

	<path
   style="fill:#444444"
   inkscape:connector-curvature="0"
   d="m 429.4,649.1 c 0.7,0 1.2,-0.6 1.2,-1.2 v -6.4 c 0,-0.7 -0.6,-1.2 -1.2,-1.2 -0.7,0 -1.2,0.6 -1.2,1.2 v 6.4 c 0,0.6 0.5,1.2 1.2,1.2 z"
   id="path4582" />

	<path
   style="fill:#444444"
   inkscape:connector-curvature="0"
   d="m 395.8,653.3 c 0.3,0 0.7,-0.1 0.9,-0.4 0.2,-0.2 0.4,-0.6 0.4,-0.9 0,-0.3 -0.1,-0.7 -0.4,-0.9 -0.5,-0.5 -1.3,-0.5 -1.8,0 -0.2,0.2 -0.4,0.6 -0.4,0.9 0,0.3 0.1,0.6 0.4,0.9 0.2,0.3 0.5,0.4 0.9,0.4 z"
   id="path4584" />

	<path
   style="fill:#444444"
   inkscape:connector-curvature="0"
   d="m 401.4,650.1 c 0.3,0 0.7,-0.1 0.9,-0.4 0.2,-0.2 0.4,-0.6 0.4,-0.9 0,-0.3 -0.1,-0.7 -0.4,-0.9 -0.5,-0.5 -1.3,-0.5 -1.8,0 -0.2,0.2 -0.4,0.6 -0.4,0.9 0,0.3 0.1,0.6 0.4,0.9 0.2,0.2 0.5,0.4 0.9,0.4 z"
   id="path4586" />

	<path
   style="fill:#444444"
   inkscape:connector-curvature="0"
   d="m 423.8,650.1 c 0.3,0 0.7,-0.1 0.9,-0.4 0.2,-0.2 0.4,-0.6 0.4,-0.9 0,-0.3 -0.1,-0.7 -0.4,-0.9 -0.5,-0.5 -1.3,-0.5 -1.8,0 -0.2,0.2 -0.4,0.6 -0.4,0.9 0,0.3 0.1,0.6 0.4,0.9 0.3,0.2 0.6,0.4 0.9,0.4 z"
   id="path4588" />

	<path
   style="fill:#444444"
   inkscape:connector-curvature="0"
   d="m 429.4,653.3 c 0.3,0 0.7,-0.1 0.9,-0.4 0.2,-0.2 0.4,-0.6 0.4,-0.9 0,-0.3 -0.1,-0.7 -0.4,-0.9 -0.5,-0.5 -1.3,-0.5 -1.8,0 -0.2,0.2 -0.4,0.6 -0.4,0.9 0,0.3 0.1,0.6 0.4,0.9 0.3,0.3 0.6,0.4 0.9,0.4 z"
   id="path4590" />

</g>
    <g
       id="g4612"
       transform="matrix(1.405104,0,0,1.1094638,-582.45346,-432.14172)">
	<path
   style="fill:#444444"
   inkscape:connector-curvature="0"
   d="m 430.8,521.2 c 0,-0.3 0.1,-0.7 0.1,-1 0,-5 -4,-9 -9,-9 -1.5,0 -2.9,0.4 -4.2,1.1 -2.1,-3.1 -5.6,-4.9 -9.4,-4.9 -6.3,0 -11.5,5.1 -11.5,11.5 0,0.6 0.1,1.3 0.2,1.9 -4.4,0.2 -8,3.9 -8,8.3 0,4.6 3.7,8.4 8.4,8.4 H 428 c 4.6,0 8.4,-3.7 8.4,-8.4 -0.1,-3.5 -2.4,-6.7 -5.6,-7.9 z m -2.9,13.7 h -30.6 c -3.2,0 -5.9,-2.6 -5.9,-5.9 0,-3.3 2.6,-5.9 5.9,-5.9 h 2.9 l -0.5,-1.6 c -0.3,-0.9 -0.4,-1.8 -0.4,-2.7 0,-4.9 4,-9 9,-9 3.3,0 6.4,1.8 7.9,4.8 l 0.7,1.3 1.2,-0.9 c 1.1,-0.9 2.5,-1.3 3.9,-1.3 3.6,0 6.5,2.9 6.5,6.5 0,0.5 -0.1,1 -0.2,1.6 l -0.3,1.3 1.3,0.3 c 2.7,0.6 4.6,3 4.6,5.7 -0.1,3.2 -2.8,5.8 -6,5.8 z"
   id="path4594" />

	<path
   style="fill:#444444"
   inkscape:connector-curvature="0"
   d="m 406.3,543.1 c -0.7,0 -1.2,0.6 -1.2,1.3 0,0.7 0.6,1.2 1.2,1.2 0.6,0 1.2,-0.6 1.2,-1.2 v -0.1 c 0,-0.7 -0.6,-1.2 -1.2,-1.2 z"
   id="path4596" />

	<path
   style="fill:#444444"
   inkscape:connector-curvature="0"
   d="m 399.9,540 c -0.7,0 -1.2,0.6 -1.2,1.3 0,0.7 0.6,1.2 1.2,1.2 0.7,0 1.2,-0.6 1.2,-1.2 v -0.1 c 0.1,-0.7 -0.5,-1.2 -1.2,-1.2 z"
   id="path4598" />

	<path
   style="fill:#444444"
   inkscape:connector-curvature="0"
   d="m 399.9,546.2 c -0.7,0 -1.2,0.6 -1.2,1.3 0,0.7 0.6,1.2 1.2,1.2 0.7,0 1.2,-0.6 1.2,-1.2 v -0.1 c 0.1,-0.7 -0.5,-1.2 -1.2,-1.2 z"
   id="path4600" />

	<path
   style="fill:#444444"
   inkscape:connector-curvature="0"
   d="m 418.9,543.1 c -0.7,0 -1.2,0.6 -1.2,1.3 0,0.7 0.6,1.2 1.2,1.2 0.6,0 1.2,-0.6 1.2,-1.2 v -0.1 c 0.1,-0.7 -0.5,-1.2 -1.2,-1.2 z"
   id="path4602" />

	<path
   style="fill:#444444"
   inkscape:connector-curvature="0"
   d="m 412.6,540 c -0.7,0 -1.2,0.6 -1.2,1.3 0,0.7 0.6,1.2 1.2,1.2 0.7,0 1.2,-0.6 1.2,-1.2 v -0.1 c 0,-0.7 -0.5,-1.2 -1.2,-1.2 z"
   id="path4604" />

	<path
   style="fill:#444444"
   inkscape:connector-curvature="0"
   d="m 412.6,546.2 c -0.7,0 -1.2,0.6 -1.2,1.3 0,0.7 0.6,1.2 1.2,1.2 0.7,0 1.2,-0.6 1.2,-1.2 v -0.1 c 0,-0.7 -0.5,-1.2 -1.2,-1.2 z"
   id="path4606" />

	<path
   style="fill:#444444"
   inkscape:connector-curvature="0"
   d="m 425.3,540 c -0.7,0 -1.2,0.6 -1.2,1.3 0,0.7 0.6,1.2 1.2,1.2 0.6,0 1.2,-0.6 1.2,-1.2 v -0.1 c 0,-0.7 -0.5,-1.2 -1.2,-1.2 z"
   id="path4608" />

	<path
   style="fill:#444444"
   inkscape:connector-curvature="0"
   d="m 425.3,546.2 c -0.7,0 -1.2,0.6 -1.2,1.3 0,0.7 0.6,1.2 1.2,1.2 0.6,0 1.2,-0.6 1.2,-1.2 v -0.1 c 0,-0.7 -0.5,-1.2 -1.2,-1.2 z"
   id="path4610" />

</g>
    <g
       id="g4630"
       transform="matrix(1.405104,0,0,1.1094638,-582.45346,-432.14172)">
	<path
   style="fill:#444444"
   inkscape:connector-curvature="0"
   d="m 399.1,399.5 c 0,0 0,0 0,0 -0.7,0 -1.3,0.6 -1.2,1.3 v 8 c 0,0.7 0.6,1.2 1.2,1.2 0,0 0,0 0,0 0.7,0 1.2,-0.6 1.2,-1.3 v -8 c 0,-0.6 -0.6,-1.2 -1.2,-1.2 z"
   id="path4614" />

	<path
   style="fill:#444444"
   inkscape:connector-curvature="0"
   d="m 410,399.5 c 0,0 0,0 0,0 -0.7,0 -1.3,0.6 -1.2,1.3 v 8 c 0,0.7 0.6,1.2 1.2,1.2 0,0 0,0 0,0 0.7,0 1.2,-0.6 1.2,-1.3 v -8 c 0.1,-0.7 -0.5,-1.2 -1.2,-1.2 z"
   id="path4616" />

	<path
   style="fill:#444444"
   inkscape:connector-curvature="0"
   d="m 415.5,399.4 c 0,0 0,0 0,0 -0.7,0 -1.3,0.6 -1.2,1.3 v 12.2 c 0,0.7 0.6,1.2 1.2,1.2 0,0 0,0 0,0 0.7,0 1.2,-0.6 1.2,-1.3 v -12.2 c 0,-0.6 -0.5,-1.2 -1.2,-1.2 z"
   id="path4618" />

	<path
   style="fill:#444444"
   inkscape:connector-curvature="0"
   d="m 404.5,399.5 c 0,0 0,0 0,0 -0.7,0 -1.3,0.6 -1.2,1.3 V 413 c 0,0.7 0.6,1.2 1.2,1.2 0,0 0,0 0,0 0.7,0 1.2,-0.6 1.2,-1.3 v -12.2 c 0.1,-0.7 -0.5,-1.2 -1.2,-1.2 z"
   id="path4620" />

	<path
   style="fill:#444444"
   inkscape:connector-curvature="0"
   d="m 421,399.4 c -0.7,0 -1.2,0.6 -1.2,1.3 v 8 c 0,0.7 0.6,1.2 1.2,1.2 0,0 0,0 0,0 0.7,0 1.2,-0.6 1.2,-1.3 v -8 c 0,-0.6 -0.5,-1.2 -1.2,-1.2 z"
   id="path4622" />

	<path
   style="fill:#444444"
   inkscape:connector-curvature="0"
   d="m 426.1,399.4 c 0,0 0,0 0,0 -0.7,0 -1.3,0.6 -1.2,1.3 v 4 c 0,0.7 0.6,1.2 1.2,1.2 0,0 0,0 0,0 0.7,0 1.2,-0.6 1.2,-1.3 v -4 c 0.1,-0.6 -0.5,-1.2 -1.2,-1.2 z"
   id="path4624" />

	<path
   style="fill:#444444"
   inkscape:connector-curvature="0"
   d="m 430.9,381.7 c 0,-0.3 0.1,-0.7 0.1,-1 0,-5 -4,-9 -9,-9 -1.5,0 -2.9,0.4 -4.2,1 -2.1,-3.1 -5.6,-5 -9.5,-5 -6.3,0 -11.5,5.1 -11.5,11.4 0,0.6 0,1.3 0.1,1.9 -4.4,0.2 -8,3.8 -8,8.3 0,2.2 0.9,4.3 2.4,5.9 1.6,1.6 3.7,2.5 5.9,2.5 l 30.6,0.1 v 0 c 4.6,0 8.3,-3.7 8.4,-8.3 0.1,-3.5 -2.1,-6.6 -5.3,-7.8 z m -3,13.7 v 1.2 -1.2 l -30.7,-0.1 c -1.6,0 -3,-0.6 -4.1,-1.7 -1.1,-1.1 -1.7,-2.6 -1.7,-4.1 0,-3.2 2.6,-5.8 5.9,-5.8 h 2.9 l -0.5,-1.6 c -0.3,-0.9 -0.4,-1.8 -0.4,-2.7 0,-4.9 4,-8.9 9,-8.9 3.3,0 6.4,1.9 7.9,4.8 l 0.7,1.3 1.2,-0.9 c 1.1,-0.8 2.5,-1.3 3.9,-1.3 3.6,0 6.5,2.9 6.5,6.5 0,0.5 -0.1,1 -0.2,1.6 l -0.3,1.3 1.3,0.3 c 2.7,0.6 4.6,3 4.6,5.7 -0.1,2.9 -2.8,5.6 -6,5.6 z"
   id="path4626" />

	<path
   style="fill:#444444"
   inkscape:connector-curvature="0"
   d="m 415.1,382.5 c 0,0 0,0 0,0 h -3 l 1.8,-3.4 c 0.3,-0.6 0.1,-1.4 -0.5,-1.7 -0.6,-0.3 -1.4,-0.1 -1.7,0.5 l -2.7,5.2 c -0.2,0.4 -0.2,0.9 0,1.2 0.2,0.4 0.6,0.6 1.1,0.6 0,0 0,0 0,0 h 3 L 411,389 c -0.3,0.6 -0.1,1.4 0.5,1.7 0.2,0.1 0.4,0.1 0.6,0.1 0.5,0 0.9,-0.2 1.1,-0.7 l 3.1,-5.9 c 0.2,-0.4 0.2,-0.9 0,-1.2 -0.4,-0.2 -0.8,-0.5 -1.2,-0.5 z"
   id="path4628" />

</g>
    <g
       id="g4646"
       transform="matrix(1.405104,0,0,1.1094638,-582.45346,-432.14172)">
	<path
   style="fill:#444444"
   inkscape:connector-curvature="0"
   d="m 430.8,244.4 c 0,-0.3 0.1,-0.7 0.1,-1 0,-5 -4,-9 -9,-9 -1.5,0 -2.9,0.4 -4.2,1.1 -2.1,-3.1 -5.6,-4.9 -9.4,-4.9 -6.3,0 -11.5,5.1 -11.5,11.5 0,0.6 0.1,1.3 0.2,1.9 -4.4,0.2 -8,3.9 -8,8.3 0,4.6 3.7,8.4 8.4,8.4 H 428 c 4.6,0 8.4,-3.7 8.4,-8.4 -0.1,-3.6 -2.4,-6.7 -5.6,-7.9 z m -2.9,13.6 h -30.6 c -3.2,0 -5.9,-2.6 -5.9,-5.9 0,-3.3 2.6,-5.9 5.9,-5.9 h 2.9 l -0.5,-1.6 c -0.3,-0.9 -0.4,-1.8 -0.4,-2.7 0,-4.9 4,-9 9,-9 3.3,0 6.4,1.8 7.9,4.8 l 0.7,1.3 1.2,-0.9 c 1.1,-0.9 2.5,-1.3 3.9,-1.3 3.6,0 6.5,2.9 6.5,6.5 0,0.5 -0.1,1 -0.2,1.6 l -0.3,1.3 1.3,0.3 c 2.7,0.6 4.6,3 4.6,5.7 -0.1,3.2 -2.8,5.8 -6,5.8 z"
   id="path4632" />

	<path
   style="fill:#444444"
   inkscape:connector-curvature="0"
   d="m 399.1,262.6 c -0.7,0 -1.2,0.6 -1.2,1.2 v 8 c 0,0.7 0.6,1.2 1.2,1.2 0.7,0 1.2,-0.6 1.2,-1.2 v -8 c 0.1,-0.6 -0.5,-1.2 -1.2,-1.2 z"
   id="path4634" />

	<path
   style="fill:#444444"
   inkscape:connector-curvature="0"
   d="m 410.1,262.6 c -0.7,0 -1.2,0.6 -1.2,1.2 v 8 c 0,0.7 0.6,1.2 1.2,1.2 0.7,0 1.2,-0.6 1.2,-1.2 v -8 c 0,-0.6 -0.5,-1.2 -1.2,-1.2 z"
   id="path4636" />

	<path
   style="fill:#444444"
   inkscape:connector-curvature="0"
   d="m 415.6,262.6 c -0.7,0 -1.2,0.6 -1.2,1.2 V 276 c 0,0.7 0.6,1.2 1.2,1.2 0.7,0 1.2,-0.6 1.2,-1.2 v -12.2 c 0,-0.6 -0.6,-1.2 -1.2,-1.2 z"
   id="path4638" />

	<path
   style="fill:#444444"
   inkscape:connector-curvature="0"
   d="m 404.6,262.6 c -0.7,0 -1.2,0.6 -1.2,1.2 V 276 c 0,0.7 0.6,1.2 1.2,1.2 0.7,0 1.2,-0.6 1.2,-1.2 v -12.2 c 0,-0.6 -0.5,-1.2 -1.2,-1.2 z"
   id="path4640" />

	<path
   style="fill:#444444"
   inkscape:connector-curvature="0"
   d="m 421,262.6 c -0.7,0 -1.2,0.6 -1.2,1.2 v 8 c 0,0.7 0.6,1.2 1.2,1.2 0.6,0 1.2,-0.6 1.2,-1.2 v -8 c 0.1,-0.6 -0.5,-1.2 -1.2,-1.2 z"
   id="path4642" />

	<path
   style="fill:#444444"
   inkscape:connector-curvature="0"
   d="m 426.2,262.6 c -0.7,0 -1.2,0.6 -1.2,1.2 v 4 c 0,0.7 0.6,1.2 1.2,1.2 0.7,0 1.2,-0.6 1.2,-1.2 v -4 c 0,-0.6 -0.5,-1.2 -1.2,-1.2 z"
   id="path4644" />

</g>
    <g
       id="g4656"
       transform="matrix(1.405104,0,0,1.1094638,-582.45346,-432.14172)">
	<path
   style="fill:#444444"
   inkscape:connector-curvature="0"
   d="m 430.8,108.9 c 0,-0.3 0.1,-0.7 0.1,-1 0,-5 -4,-9 -9,-9 -1.5,0 -2.9,0.4 -4.2,1.1 -2.1,-3.1 -5.6,-4.9 -9.4,-4.9 -6.3,0 -11.5,5.1 -11.5,11.5 0,0.6 0.1,1.3 0.2,1.9 -4.4,0.2 -8,3.9 -8,8.3 0,4.6 3.7,8.4 8.4,8.4 H 428 c 4.6,0 8.4,-3.7 8.4,-8.4 -0.1,-3.6 -2.4,-6.7 -5.6,-7.9 z m -2.9,13.6 h -30.6 c -3.2,0 -5.9,-2.6 -5.9,-5.9 0,-3.2 2.6,-5.9 5.9,-5.9 h 2.9 l -0.5,-1.6 c -0.3,-0.9 -0.4,-1.8 -0.4,-2.7 0,-4.9 4,-9 9,-9 3.3,0 6.4,1.8 7.9,4.8 l 0.7,1.3 1.2,-0.9 c 1.1,-0.9 2.5,-1.3 3.9,-1.3 3.6,0 6.5,2.9 6.5,6.5 0,0.5 -0.1,1 -0.2,1.6 l -0.3,1.3 1.3,0.3 c 2.7,0.6 4.6,3 4.6,5.7 -0.1,3.2 -2.8,5.8 -6,5.8 z"
   id="path4648" />

	<path
   style="fill:#444444"
   inkscape:connector-curvature="0"
   d="m 407,131 h -2.3 l 1.4,-2.7 c 0.3,-0.6 0.1,-1.4 -0.5,-1.7 -0.6,-0.3 -1.4,-0.1 -1.7,0.5 l -2.4,4.5 c -0.2,0.4 -0.2,0.9 0,1.2 0.2,0.4 0.6,0.6 1.1,0.6 h 2.3 l -1.7,3.3 c -0.3,0.6 -0.1,1.4 0.5,1.7 0.2,0.1 0.4,0.1 0.6,0.1 0.5,0 0.9,-0.2 1.1,-0.7 l 2.7,-5.1 c 0.2,-0.4 0.2,-0.9 0,-1.2 -0.2,-0.2 -0.6,-0.5 -1.1,-0.5 z"
   id="path4650" />

	<path
   style="fill:#444444"
   inkscape:connector-curvature="0"
   d="m 414.8,131 h -2.3 l 1.4,-2.7 c 0.3,-0.6 0.1,-1.4 -0.5,-1.7 -0.6,-0.3 -1.4,-0.1 -1.7,0.5 l -2.4,4.5 c -0.2,0.4 -0.2,0.9 0,1.2 0.2,0.4 0.6,0.6 1.1,0.6 h 2.3 l -1.7,3.3 c -0.3,0.6 -0.1,1.4 0.5,1.7 0.2,0.1 0.4,0.1 0.6,0.1 0.5,0 0.9,-0.2 1.1,-0.7 l 2.7,-5.1 c 0.2,-0.4 0.2,-0.9 0,-1.2 -0.3,-0.2 -0.7,-0.5 -1.1,-0.5 z"
   id="path4652" />

	<path
   style="fill:#444444"
   inkscape:connector-curvature="0"
   d="m 422.5,131 h -2.3 l 1.4,-2.7 c 0.3,-0.6 0.1,-1.4 -0.5,-1.7 -0.6,-0.3 -1.4,-0.1 -1.7,0.5 l -2.4,4.5 c -0.2,0.4 -0.2,0.9 0,1.2 0.2,0.4 0.6,0.6 1.1,0.6 h 2.3 l -1.7,3.3 c -0.3,0.6 -0.1,1.4 0.5,1.7 0.2,0.1 0.4,0.1 0.6,0.1 0.5,0 0.9,-0.2 1.1,-0.7 l 2.7,-5.1 c 0.2,-0.4 0.2,-0.9 0,-1.2 -0.2,-0.2 -0.6,-0.5 -1.1,-0.5 z"
   id="path4654" />

</g>
    <path
       style="fill:#444444;stroke-width:1.248564"
       inkscape:connector-curvature="0"
       d="m -130.71252,316.96824 -7.44706,-3.32839 c 0.42154,-0.44379 0.98358,-0.77663 1.68613,-0.77663 1.12408,-0.11094 2.10766,0.44379 2.24817,0.44379 0.70255,0.44378 1.82663,0.44378 2.52918,-0.11095 0.56204,-0.55473 0.56204,-1.4423 -0.14051,-1.99703 -0.28102,-0.11095 -2.24816,-1.44231 -5.05837,-1.10947 -1.54562,0.22189 -2.95072,0.88757 -4.21531,2.10798 l -2.81021,-1.33135 0.28102,-0.33284 c 0.42153,-0.66568 0.14051,-1.55325 -0.70255,-1.88609 -0.84307,-0.33284 -1.96715,-0.11095 -2.38868,0.55473 l -0.28102,0.33284 -5.62042,-2.55177 5.62042,-2.55176 0.28102,0.33284 c 0.28102,0.44378 0.98357,0.66567 1.54561,0.66567 0.28103,0 0.56205,-0.11094 0.84307,-0.22189 0.84306,-0.33284 1.12408,-1.22041 0.70255,-1.88609 l -0.28102,-0.33284 2.81021,-1.33135 c 1.26459,1.22041 2.52918,1.88609 4.21531,2.10798 0.28102,0 0.70255,0.11094 0.98357,0.11094 2.24817,0 3.79378,-0.99851 4.0748,-1.22041 0.70255,-0.44378 0.84307,-1.33135 0.14051,-1.99703 -0.56204,-0.55473 -1.68612,-0.66568 -2.52918,-0.11095 0,0 -0.98358,0.66568 -2.10766,0.44379 -0.70255,-0.11095 -1.26459,-0.44379 -1.68612,-0.77663 l 7.44705,-3.32839 c 0.84306,-0.33284 1.12408,-1.22041 0.70255,-1.88609 -0.42153,-0.66567 -1.54562,-0.88757 -2.38868,-0.55473 l -7.44705,3.32839 c -0.14051,-0.55473 -0.28102,-1.10946 -0.14051,-1.55325 0.42153,-0.88757 1.54561,-1.22041 1.68612,-1.22041 0.84307,-0.22189 1.40511,-0.99851 0.98358,-1.77514 -0.28102,-0.77662 -1.2646,-1.10946 -2.24817,-0.88757 -0.28102,0.11095 -2.81021,0.77663 -3.79378,2.88461 -0.56204,1.22041 -0.42153,2.55176 0.28102,3.88312 l -2.81021,1.33136 -0.28102,-0.33284 c -0.42153,-0.66568 -1.54561,-0.88757 -2.38867,-0.55473 -0.84307,0.33284 -1.12409,1.22041 -0.70256,1.88608 l 0.28102,0.33284 -5.62041,2.55177 v -5.21448 h 0.56204 c 0.98357,0 1.68612,-0.66568 1.68612,-1.33136 0,-0.77662 -0.84306,-1.33135 -1.68612,-1.33135 h -0.56204 v -2.55177 c 1.96714,-0.22189 3.37225,-0.77662 4.49633,-1.77514 1.82664,-1.6642 1.40511,-3.77218 1.26459,-3.99407 -0.14051,-0.77663 -1.12408,-1.22041 -1.96714,-1.10946 -0.98357,0.11094 -1.54562,0.88757 -1.4051,1.55324 0,0 0.14051,0.99852 -0.56205,1.77515 -0.42153,0.33284 -1.12408,0.55473 -1.68612,0.66567 v -6.76772 c 0,-0.77663 -0.84306,-1.33136 -1.82664,-1.33136 -0.98357,0 -1.68612,0.66568 -1.68612,1.33136 v 6.76772 c -0.70255,-0.11094 -1.26459,-0.33283 -1.68613,-0.66567 -0.70255,-0.66568 -0.56204,-1.6642 -0.56204,-1.77515 0.14051,-0.77662 -0.42153,-1.4423 -1.4051,-1.55324 -0.98357,-0.11095 -1.82664,0.33283 -2.10766,1.10946 0,0.22189 -0.42153,2.32987 1.2646,3.99407 0.98357,0.99852 2.52918,1.55325 4.49633,1.77514 v 2.55177 h -0.56204 c -0.98358,0 -1.68613,0.66568 -1.68613,1.33135 0,0.77663 0.84306,1.33136 1.68613,1.33136 h 0.56204 v 5.21448 l -5.62042,-2.55177 0.28102,-0.33284 c 0.42153,-0.66567 0.14051,-1.55324 -0.70255,-1.88608 -0.84306,-0.33284 -1.96714,-0.11095 -2.38868,0.55473 l -0.28102,0.33284 -2.8102,-1.33136 c 0.70255,-1.4423 0.84306,-2.77366 0.28102,-3.88312 -0.98358,-2.10798 -3.51276,-2.77366 -3.79378,-2.88461 -0.84307,-0.22189 -1.96715,0.11095 -2.24817,0.88757 -0.28102,0.77663 0.14051,1.55325 1.12408,1.77514 0,0 1.2646,0.33284 1.54562,1.22041 0.28102,0.44379 0.14051,0.99852 0,1.55325 l -7.44705,-3.32839 c -0.84307,-0.33284 -1.96715,-0.11094 -2.38868,0.55473 -0.42153,0.66568 -0.14051,1.55325 0.70255,1.88609 l 7.44705,3.32839 c -0.42153,0.44379 -0.98357,0.77663 -1.68612,0.77663 -1.12409,0.22189 -2.10766,-0.44379 -2.24817,-0.44379 -0.70255,-0.44378 -1.82663,-0.44378 -2.52919,0.11095 -0.56204,0.55473 -0.56204,1.4423 0.14051,1.99703 0.14051,0.11095 1.82664,1.22041 4.07481,1.22041 0.28102,0 0.70255,0 0.98357,-0.11094 1.54561,-0.22189 2.95072,-0.88757 4.21531,-2.10798 l 2.81021,1.33135 -0.28102,0.33284 c -0.42153,0.66568 -0.14051,1.55325 0.70255,1.88609 0.28102,0.11095 0.56204,0.22189 0.84306,0.22189 0.56204,0 1.2646,-0.22189 1.54562,-0.66567 l 0.28102,-0.33284 5.62041,2.55176 -5.62041,2.55177 -0.28102,-0.33284 c -0.42153,-0.66568 -1.54562,-0.88757 -2.38868,-0.55473 -0.84306,0.33284 -1.12408,1.22041 -0.70255,1.88609 l 0.28102,0.33284 -2.81021,1.33135 c -1.26459,-1.22041 -2.52919,-1.88609 -4.21531,-2.10798 -2.6697,-0.33284 -4.77735,0.99852 -5.05838,1.10947 -0.70255,0.44378 -0.84306,1.33135 -0.14051,1.99703 0.56205,0.55473 1.68613,0.66568 2.52919,0.11095 0,0 0.98357,-0.66568 2.10766,-0.44379 0.70255,0.11095 1.26459,0.44379 1.68612,0.77663 l -7.44705,3.32839 c -0.84306,0.33284 -1.12408,1.22041 -0.70255,1.88609 0.28102,0.44378 0.98357,0.66567 1.54561,0.66567 0.28102,0 0.56204,-0.11094 0.84307,-0.22189 l 7.44705,-3.32839 c 0.14051,0.55473 0.28102,1.10946 0.14051,1.55325 -0.42153,0.88757 -1.54562,1.22041 -1.68613,1.22041 -0.84306,0.22189 -1.4051,0.99852 -0.98357,1.77514 0.28102,0.55473 0.98357,0.88757 1.68612,0.88757 0.14051,0 0.42154,0 0.56205,-0.11094 0.28102,-0.11095 2.8102,-0.77663 3.79378,-2.88461 0.56204,-1.22041 0.42153,-2.55177 -0.28102,-3.88312 l 2.8102,-1.33136 0.28102,0.33284 c 0.28103,0.44379 0.98358,0.66568 1.54562,0.66568 0.28102,0 0.56204,-0.11095 0.84306,-0.22189 0.84306,-0.33284 1.12408,-1.22041 0.70255,-1.88609 l -0.28102,-0.33284 5.62042,-2.55177 v 5.21448 h -0.56204 c -0.98358,0 -1.68613,0.66568 -1.68613,1.33136 0,0.77662 0.84306,1.33135 1.68613,1.33135 h 0.56204 v 2.55177 c -1.96715,0.22189 -3.37225,0.77663 -4.49633,1.77514 -1.82664,1.6642 -1.40511,3.77218 -1.2646,3.99407 0.14051,0.66568 0.84306,1.10947 1.68613,1.10947 0.14051,0 0.14051,0 0.28102,0 0.98357,-0.11095 1.54561,-0.88757 1.4051,-1.55325 0,0 -0.14051,-0.99852 0.56204,-1.77514 0.42153,-0.33284 1.12409,-0.55474 1.68613,-0.66568 v 6.76773 c 0,0.77662 0.84306,1.33135 1.68612,1.33135 0.98358,0 1.82664,-0.66568 1.82664,-1.33135 v -6.76773 c 0.70255,0.11094 1.26459,0.33284 1.68612,0.66568 0.70256,0.66567 0.56204,1.66419 0.56204,1.77514 -0.14051,0.77662 0.42154,1.4423 1.40511,1.55325 0.14051,0 0.28102,0 0.28102,0 0.84306,0 1.54561,-0.44379 1.68612,-1.10947 0,-0.22189 0.42154,-2.32987 -1.26459,-3.99407 -0.98357,-0.99851 -2.52919,-1.55325 -4.49633,-1.77514 v -2.55177 h 0.56204 c 0.98357,0 1.68612,-0.66567 1.68612,-1.33135 0,-0.77663 -0.84306,-1.33136 -1.68612,-1.33136 h -0.56204 v -5.21448 l 5.62041,2.55177 -0.28102,0.33284 c -0.42153,0.66568 -0.14051,1.55325 0.70256,1.88609 0.28102,0.11094 0.56204,0.22189 0.84306,0.22189 0.56204,0 1.26459,-0.22189 1.54561,-0.66568 l 0.28102,-0.33284 2.81021,1.33136 c -0.70255,1.4423 -0.84306,2.77366 -0.28102,3.88312 0.98357,2.10798 3.51276,2.77366 3.79378,2.88461 0.14051,0 0.42153,0.11094 0.56204,0.11094 0.70255,0 1.40511,-0.33284 1.68613,-0.88757 0.28102,-0.77662 -0.14051,-1.55325 -1.12409,-1.77514 0,0 -1.26459,-0.33284 -1.54561,-1.22041 -0.28102,-0.44379 -0.14051,-0.99852 0,-1.55325 l 7.44705,3.32839 c 0.28102,0.11095 0.56204,0.22189 0.84306,0.22189 0.56204,0 1.2646,-0.22189 1.54562,-0.66567 0.56204,-0.66568 0.28102,-1.55325 -0.56204,-1.88609 z"
       id="path4658" />
    <g
       id="g4680"
       transform="matrix(1.405104,0,0,1.1094638,-582.45346,-432.14172)">
	<path
   style="fill:#444444"
   inkscape:connector-curvature="0"
   d="m 327.6,517 c 0,-3 -1.2,-5.9 -3.3,-8 -1.5,-1.5 -3.5,-2.6 -5.6,-3.1 l -2.4,-0.5 1,2.3 c 0.9,2 0.9,4.4 0.1,6.4 -1.5,-1.2 -3.4,-1.8 -5.4,-1.8 -1.5,0 -2.9,0.4 -4.2,1.1 -2.1,-3.1 -5.6,-4.9 -9.4,-4.9 -6.3,0 -11.5,5.1 -11.5,11.5 0,0.6 0.1,1.3 0.2,1.9 -4.4,0.2 -8,3.9 -8,8.3 0,4.6 3.7,8.4 8.4,8.4 h 30.6 c 4.6,0 8.4,-3.7 8.4,-8.4 0,-1.9 -0.7,-3.7 -1.8,-5.1 1.8,-2.4 2.9,-5.2 2.9,-8.1 z m -9.7,18.8 h -30.6 c -3.2,0 -5.9,-2.6 -5.9,-5.9 0,-3.2 2.6,-5.9 5.9,-5.9 h 2.9 l -0.5,-1.6 c -0.3,-0.9 -0.4,-1.8 -0.4,-2.7 0,-4.9 4,-9 9,-9 3.3,0 6.4,1.8 7.9,4.8 l 0.7,1.3 1.2,-0.9 c 1.1,-0.9 2.5,-1.3 3.9,-1.3 1.5,0 3,0.5 4.1,1.5 0.7,0.5 1.2,1.2 1.6,1.9 0.5,0.9 0.8,2 0.8,3.1 0,0.5 -0.1,1 -0.2,1.6 l -0.3,1.3 1.3,0.3 c 0.5,0.1 0.9,0.3 1.4,0.5 0.8,0.4 1.5,1 2,1.7 0.8,1 1.2,2.2 1.2,3.5 -0.1,3.2 -2.8,5.8 -6,5.8 z m 4.8,-12.7 c -0.6,-0.4 -1.2,-0.7 -1.8,-1 0,-0.3 0.1,-0.7 0.1,-1 0,-2 -0.6,-3.8 -1.7,-5.2 1.1,-2.1 1.6,-4.5 1.2,-6.8 0.8,0.4 1.5,1 2.2,1.6 1.7,1.7 2.6,3.9 2.6,6.3 -0.2,2.3 -1,4.4 -2.6,6.1 z"
   id="path4660" />

	<path
   style="fill:#444444"
   inkscape:connector-curvature="0"
   d="m 310,540.3 c -0.7,0 -1.2,0.6 -1.2,1.2 v 2 c 0,0.7 0.6,1.2 1.2,1.2 0.7,0 1.2,-0.6 1.2,-1.2 v -2 c 0,-0.6 -0.5,-1.2 -1.2,-1.2 z"
   id="path4662" />

	<path
   style="fill:#444444"
   inkscape:connector-curvature="0"
   d="m 310,546.1 c -0.7,0 -1.2,0.6 -1.2,1.3 0,0.7 0.6,1.2 1.2,1.2 0.7,0 1.2,-0.6 1.2,-1.2 v -0.1 c 0,-0.7 -0.5,-1.2 -1.2,-1.2 z"
   id="path4664" />

	<path
   style="fill:#444444"
   inkscape:connector-curvature="0"
   d="m 310,549.7 c -0.7,0 -1.2,0.6 -1.2,1.3 0,0.7 0.6,1.2 1.2,1.2 0.7,0 1.2,-0.6 1.2,-1.2 v -0.1 c 0,-0.7 -0.5,-1.2 -1.2,-1.2 z"
   id="path4666" />

	<path
   style="fill:#444444"
   inkscape:connector-curvature="0"
   d="m 288.9,546.1 c -0.7,0 -1.2,0.6 -1.2,1.3 0,0.7 0.6,1.2 1.2,1.2 0.7,0 1.2,-0.6 1.2,-1.2 v -0.1 c 0,-0.7 -0.5,-1.2 -1.2,-1.2 z"
   id="path4668" />

	<path
   style="fill:#444444"
   inkscape:connector-curvature="0"
   d="m 299,540.3 c -0.7,0 -1.2,0.6 -1.2,1.2 v 2 c 0,0.7 0.6,1.2 1.2,1.2 0.7,0 1.2,-0.6 1.2,-1.2 v -2 c 0.1,-0.6 -0.5,-1.2 -1.2,-1.2 z"
   id="path4670" />

	<path
   style="fill:#444444"
   inkscape:connector-curvature="0"
   d="m 293.7,540.6 c -0.7,0 -1.2,0.6 -1.2,1.2 v 3.8 c 0,0.7 0.6,1.2 1.2,1.2 0.7,0 1.2,-0.6 1.2,-1.2 v -3.8 c 0.1,-0.7 -0.5,-1.2 -1.2,-1.2 z"
   id="path4672" />

	<path
   style="fill:#444444"
   inkscape:connector-curvature="0"
   d="m 315.4,540.3 c -0.7,0 -1.2,0.6 -1.2,1.2 v 1.2 c 0,0.7 0.6,1.2 1.2,1.2 0.6,0 1.2,-0.6 1.2,-1.2 v -1.2 c 0,-0.6 -0.5,-1.2 -1.2,-1.2 z"
   id="path4674" />

	<path
   style="fill:#444444"
   inkscape:connector-curvature="0"
   d="m 288.9,540.3 c -0.7,0 -1.2,0.6 -1.2,1.2 v 2.4 c 0,0.7 0.6,1.2 1.2,1.2 0.7,0 1.2,-0.6 1.2,-1.2 v -2.4 c 0,-0.6 -0.5,-1.2 -1.2,-1.2 z"
   id="path4676" />

	<path
   style="fill:#444444"
   inkscape:connector-curvature="0"
   d="m 304.6,540.3 c -0.7,0 -1.2,0.6 -1.2,1.2 v 4 c 0,0.7 0.6,1.2 1.2,1.2 0.7,0 1.2,-0.6 1.2,-1.2 v -4 c 0,-0.6 -0.5,-1.2 -1.2,-1.2 z"
   id="path4678" />

</g>
    <path
       style="fill:#444444;stroke-width:1.248564"
       inkscape:connector-curvature="0"
       d="m -121.57935,-2.7792294 c 0,-6.9896219 -7.16603,-12.6478876 -16.01818,-12.6478876 -3.37225,0 -8.29012,1.664196 -8.29012,1.664196 0,0 10.53828,1.664196 12.50543,10.0961206 -2.10766,-3.2174451 -6.32297,-5.4363727 -11.24083,-5.4363727 -2.10766,0 -4.07481,0.4437856 -5.90144,1.2204102 -2.95072,-3.4393381 -7.86858,-5.4363721 -13.20798,-5.4363721 -8.85215,0 -16.15869,5.6582649 -16.15869,12.7588332 0,0.66567828 0.14051,1.44230294 0.28102,2.1079812 -6.18246,0.2218928 -11.24084,4.3269088 -11.24084,9.2085496 0,5.103533 5.19889,9.319496 11.80288,9.319496 h 42.99618 c 6.46348,0 11.80287,-4.105016 11.80287,-9.319496 0,-1.6641957 -0.56204,-3.2174451 -1.54561,-4.659748 2.52919,-2.4408204 4.21531,-5.547319 4.21531,-8.8757104 z m -14.61308,-9.8742276 c 6.18246,0.554732 11.10032,4.7706941 11.10032,9.8742276 0,2.55176674 -1.26459,4.8816407 -3.23174,6.6567828 -0.28102,-0.2218928 -0.56204,-0.3328391 -0.84306,-0.5547319 -0.70255,-0.3328391 -1.4051,-0.6656783 -2.10766,-0.9985174 0.98358,-1.55324934 1.40511,-3.3283914 1.40511,-5.1035335 0.14051,-4.1050161 -2.38868,-7.6553006 -6.32297,-9.8742276 z m 0,29.73363 h -42.99618 c -4.49633,0 -8.29012,-2.884606 -8.29012,-6.545837 0,-3.550284 3.65327,-6.5458362 8.29012,-6.5458362 h 4.0748 l -0.70255,-1.7751421 c -0.42153,-0.9985174 -0.56204,-1.99703484 -0.56204,-2.99555226 0,-5.43637264 5.62041,-9.98517444 12.64593,-9.98517444 4.63685,0 8.99267,1.9970351 11.10032,5.3254265 l 0.98358,1.4423029 1.68612,-0.9985174 c 1.54562,-0.9985174 3.51276,-1.4423029 5.47991,-1.4423029 5.05837,0 9.13317,3.217445 9.13317,7.21151466 0,0.33283914 0,0.66567824 -0.14051,0.99851744 0,0.2218927 -0.14051,0.5547319 -0.14051,0.7766246 l -0.42153,1.442303 1.82664,0.3328391 c 0.14051,0 0.42153,0.1109464 0.56204,0.1109464 0.42153,0.1109464 0.98357,0.2218928 1.4051,0.4437855 1.12408,0.4437855 2.24817,1.1094638 2.95072,1.9970349 0.98357,1.1094638 1.54561,2.4408203 1.54561,3.7721773 -0.28102,3.550284 -3.93429,6.43489 -8.43062,6.43489 z"
       id="path4682" />
    <path
       style="fill:#444444;stroke-width:1.248564"
       inkscape:connector-curvature="0"
       d="m -122.14139,-155.55239 c 0,-3.3284 -1.68612,-6.54584 -4.63684,-8.87572 -2.10766,-1.66419 -4.91787,-2.8846 -7.86859,-3.43933 l -3.37224,-0.55473 1.4051,2.55176 c 1.26459,2.21893 1.26459,4.88164 0.14051,7.10057 -2.10766,-1.33136 -4.77735,-1.99703 -7.58756,-1.99703 -2.10766,0 -4.0748,0.44378 -5.90144,1.22041 -2.95072,-3.43934 -7.86858,-5.43638 -13.20798,-5.43638 -8.85215,0 -16.15869,5.65827 -16.15869,12.75884 0,0.66568 0.14051,1.4423 0.28102,2.10798 -6.18246,0.22189 -11.24083,4.32691 -11.24083,9.20855 0,5.10353 5.19888,9.31949 11.80287,9.31949 h 42.99618 c 6.46348,0 11.80288,-4.10501 11.80288,-9.31949 0,-2.10798 -0.98358,-4.10502 -2.52919,-5.65827 2.52919,-2.66271 4.0748,-5.76921 4.0748,-8.98665 z m -10.11675,-8.76477 c 1.12408,0.44379 2.10766,1.10947 3.09123,1.77514 2.38868,1.88609 3.65327,4.32691 3.65327,6.98963 0,2.55176 -1.26459,4.99258 -3.51276,6.76772 -0.84306,-0.44378 -1.68612,-0.77662 -2.52919,-1.10946 0,-0.33284 0.14051,-0.77662 0.14051,-1.10946 0,-2.21893 -0.84306,-4.21597 -2.38867,-5.76921 1.4051,-2.32988 2.10765,-4.99259 1.54561,-7.54436 z m -3.51276,29.62268 h -42.99618 c -4.49633,0 -8.29011,-2.8846 -8.29011,-6.54583 0,-3.55029 3.65327,-6.54584 8.29011,-6.54584 h 4.0748 l -0.70255,-1.77514 c -0.42153,-0.99852 -0.56204,-1.99703 -0.56204,-2.99555 0,-5.43638 5.62041,-9.98518 12.64593,-9.98518 4.63685,0 8.99267,1.99704 11.10032,5.32543 l 0.98358,1.4423 1.68612,-0.99851 c 1.54562,-0.99852 3.51276,-1.44231 5.47991,-1.44231 2.10765,0 4.21531,0.55473 5.76092,1.6642 0.98358,0.55473 1.68613,1.33135 2.24817,2.10798 0.70255,0.99852 1.12408,2.21893 1.12408,3.43934 0,0.55473 -0.14051,1.10946 -0.28102,1.77514 l -0.42153,1.4423 1.82664,0.33284 c 0.70255,0.11095 1.26459,0.33284 1.96714,0.55473 1.12409,0.44379 2.10766,1.10947 2.81021,1.88609 1.12408,1.10947 1.68613,2.44082 1.68613,3.88312 -0.14051,3.55029 -3.9343,6.43489 -8.43063,6.43489 z"
       id="path4684" />
    <path
       style="fill:#444444;stroke-width:1.248564"
       inkscape:connector-curvature="0"
       d="m -119.19067,-307.77083 c 0,-6.54583 -6.7445,-11.87126 -15.03461,-11.87126 -5.05838,0 -9.69522,1.99703 -12.36492,5.10353 -0.14051,0 -0.28102,0 -0.42153,0 -2.10766,0 -4.0748,0.44379 -5.90144,1.22041 -2.95072,-3.43933 -7.86858,-5.43637 -13.20797,-5.43637 -8.85216,0 -16.1587,5.65827 -16.1587,12.75883 0,0.66568 0.14051,1.44231 0.28102,2.10799 -6.18246,0.22189 -11.24083,4.3269 -11.24083,9.20854 0,5.10354 5.19888,9.3195 11.80287,9.3195 h 42.99618 c 6.46348,0 11.80288,-4.10502 11.80288,-9.3195 0,-0.88757 -0.14051,-1.66419 -0.42153,-2.44082 4.49633,-2.10798 7.86858,-5.9911 7.86858,-10.65085 z m -11.24083,13.09167 c 0,3.55029 -3.65327,6.54584 -8.29012,6.54584 h -42.99618 c -4.49633,0 -8.29011,-2.8846 -8.29011,-6.54584 0,-3.55028 3.65327,-6.54583 8.29011,-6.54583 h 4.0748 l -0.70255,-1.77514 c -0.42153,-0.99852 -0.56204,-1.99704 -0.56204,-2.99556 0,-5.43637 5.62041,-9.98517 12.64593,-9.98517 4.63685,0 8.99267,1.99703 11.10033,5.32543 l 0.98357,1.4423 1.68612,-0.99852 c 1.2646,-0.66568 2.6697,-1.22041 4.07481,-1.33135 0.42153,-0.11095 0.98357,-0.11095 1.4051,-0.11095 0.84306,0 1.54561,0.11095 2.24817,0.22189 3.93429,0.77663 6.88501,3.66123 6.88501,6.98962 0,0.55474 -0.14051,1.10947 -0.28103,1.77515 l -0.42153,1.4423 1.82664,0.33284 c 1.82663,0.33284 3.51276,1.10946 4.63684,2.32987 0.70255,0.77663 1.2646,1.6642 1.54562,2.55177 0.14051,0.22189 0.14051,0.77662 0.14051,1.33135 z m 1.68612,-5.10353 c -1.4051,-1.66419 -3.37225,-2.99555 -5.76092,-3.66123 0,-0.33284 0.14051,-0.77662 0.14051,-1.10946 0,-4.32691 -3.51276,-7.98814 -8.29012,-9.3195 2.10766,-1.77514 5.05838,-2.99555 8.43063,-2.99555 6.32296,0 11.52185,4.10501 11.52185,9.0976 0,3.43934 -2.52919,6.54584 -6.04195,7.98814 z"
       id="path4686" />
    <g
       id="g4692"
       transform="matrix(1.405104,0,0,1.1094638,-582.45346,-432.14172)">
	<path
   style="fill:#444444"
   inkscape:connector-curvature="0"
   d="M 205.3,672.4 V 648 c 0,-2.9 -2.4,-5.3 -5.3,-5.3 -2.9,0 -5.3,2.4 -5.3,5.3 v 24.4 c -2,1.6 -3.2,4 -3.2,6.6 0,4.7 3.8,8.5 8.5,8.5 4.7,0 8.5,-3.8 8.5,-8.5 0,-2.6 -1.2,-5 -3.2,-6.6 z m -5.2,12.6 c -3.3,0 -6,-2.7 -6,-6 0,-2 1,-3.8 2.6,-4.9 l 0.6,-0.4 V 648 c 0,-1.5 1.2,-2.8 2.8,-2.8 1.5,0 2.8,1.2 2.8,2.8 v 25.7 l 0.6,0.4 c 1.7,1.1 2.6,3 2.6,4.9 -0.1,3.3 -2.7,6 -6,6 z"
   id="path4688" />

	<path
   style="fill:#444444"
   inkscape:connector-curvature="0"
   d="m 202.6,675.3 -1.2,-0.8 v -9.4 -5.6 -1.5 c 0,-0.7 -0.6,-1.3 -1.3,-1.3 -0.7,0 -1.3,0.6 -1.3,1.3 v 1.5 5.6 9.4 l -1.2,0.8 c -1.2,0.8 -2,2.2 -2,3.7 0,2.5 2,4.5 4.5,4.5 2.5,0 4.5,-2 4.5,-4.5 0,-1.5 -0.8,-2.9 -2,-3.7 z"
   id="path4690" />

</g>
    <g
       id="g4700"
       transform="matrix(1.405104,0,0,1.1094638,-582.45346,-432.14172)">
	<path
   style="fill:#444444"
   inkscape:connector-curvature="0"
   d="m 207.8,511.8 c -3.1,0 -6.1,0.9 -8.8,2.6 l -2.1,1.4 2.3,0.9 c 4.8,1.8 7.9,6.3 7.9,11.4 0,5.1 -3.2,9.6 -7.9,11.4 l -2.3,0.9 2.1,1.4 c 2.6,1.7 5.7,2.6 8.8,2.6 8.9,0 16.2,-7.3 16.2,-16.2 0,-9.1 -7.3,-16.4 -16.2,-16.4 z m 0,29.9 c -1.8,0 -3.6,-0.4 -5.3,-1.1 4.4,-2.6 7.2,-7.4 7.2,-12.6 0,-5.2 -2.8,-10 -7.2,-12.6 1.7,-0.7 3.5,-1.1 5.3,-1.1 7.6,0 13.7,6.1 13.7,13.7 0,7.6 -6.1,13.7 -13.7,13.7 z"
   id="path4694" />

	<path
   style="fill:#444444"
   inkscape:connector-curvature="0"
   d="m 196.4,528.2 1.8,-1.7 c 0.3,-0.3 0.5,-0.8 0.3,-1.3 -0.1,-0.5 -0.5,-0.8 -1,-0.9 l -2.5,-0.3 -1.1,-2.2 c -0.2,-0.4 -0.6,-0.7 -1.1,-0.7 -0.5,0 -0.9,0.3 -1.1,0.7 l -1.1,2.2 -2.4,0.4 c -0.5,0.1 -0.9,0.4 -1,0.9 -0.1,0.5 0,1 0.3,1.3 l 1.8,1.7 -0.4,2.4 c -0.1,0.5 0.1,0.9 0.5,1.2 0.4,0.3 0.9,0.3 1.3,0.1 l 2.2,-1.1 2.2,1.1 c 0.2,0.1 0.4,0.1 0.6,0.1 0.3,0 0.5,-0.1 0.7,-0.2 0.4,-0.3 0.6,-0.8 0.5,-1.2 z m -2.2,-1.3 c -0.3,0.3 -0.4,0.7 -0.4,1.1 l 0.1,0.6 -0.5,-0.3 c -0.2,-0.1 -0.4,-0.1 -0.6,-0.1 -0.2,0 -0.4,0 -0.6,0.1 l -0.5,0.3 0.1,-0.6 c 0.1,-0.4 -0.1,-0.8 -0.4,-1.1 l -0.4,-0.4 0.6,-0.1 c 0.4,-0.1 0.8,-0.3 0.9,-0.7 l 0.3,-0.5 0.3,0.5 c 0.2,0.4 0.5,0.6 0.9,0.7 l 0.6,0.1 z"
   id="path4696" />

	<path
   style="fill:#444444"
   inkscape:connector-curvature="0"
   d="m 183.8,533.3 -1.5,-0.2 -0.7,-1.4 c -0.2,-0.4 -0.6,-0.7 -1.1,-0.7 -0.5,0 -0.9,0.3 -1.1,0.7 l -0.7,1.4 -1.5,0.2 c -0.5,0.1 -0.9,0.4 -1,0.9 -0.1,0.5 0,0.9 0.3,1.3 l 1.1,1.1 -0.3,1.5 c -0.1,0.5 0.1,0.9 0.5,1.2 0.4,0.3 0.9,0.3 1.3,0.1 l 1.3,-0.7 1.3,0.7 c 0.2,0.1 0.4,0.1 0.6,0.1 0.3,0 0.5,-0.1 0.7,-0.2 0.4,-0.3 0.6,-0.8 0.5,-1.2 l -0.3,-1.5 1.1,-1.1 c 0.3,-0.3 0.5,-0.8 0.3,-1.3 0,-0.5 -0.3,-0.8 -0.8,-0.9 z m -3,2.7 c -0.1,0 -0.2,0 -0.3,0 -0.1,0 -0.2,0 -0.3,0 0,-0.2 -0.1,-0.4 -0.2,-0.6 0.2,-0.1 0.4,-0.2 0.5,-0.4 0.1,0.2 0.3,0.3 0.5,0.4 -0.1,0.2 -0.2,0.4 -0.2,0.6 z"
   id="path4698" />

</g>
    <path
       style="fill:#444444;stroke-width:1.248564"
       inkscape:connector-curvature="0"
       d="m -306.63154,19.631939 c -2.81021,0 -5.47991,-0.443785 -8.0091,-1.22041 l -5.90143,-1.775142 6.18245,-0.887571 c 8.71165,-1.22041 15.03462,-7.2115146 15.03462,-14.2011366 0,-6.9896219 -6.32297,-12.8697804 -15.03462,-14.2011364 l -6.18245,-0.887571 5.90143,-1.775142 c 2.52919,-0.776625 5.3394,-1.220411 8.0091,-1.220411 12.50542,0 22.76268,8.0990862 22.76268,17.973314 0,10.096121 -10.25726,18.195206 -22.76268,18.195206 z m -0.98358,-2.773659 c 0.28102,0 0.56204,0 0.84306,0 10.6788,0 19.24993,-6.767729 19.24993,-15.1996542 0,-8.4319249 -8.57113,-15.1996538 -19.24993,-15.1996538 -0.28102,0 -0.56204,0 -0.84306,0 7.02552,2.884606 11.66237,8.6538174 11.66237,15.1996538 0,6.43489 -4.63685,12.2041022 -11.66237,15.1996542 z"
       id="path4702" />
    <path
       style="fill:#444444;stroke-width:1.248564"
       inkscape:connector-curvature="0"
       d="m -306.0695,-132.47555 c -4.35583,0 -8.57114,-0.99852 -12.36492,-2.8846 l -2.95072,-1.55325 3.23174,-0.99852 c 6.7445,-1.99704 11.10032,-6.98962 11.10032,-12.64789 0,-5.65826 -4.49633,-10.65085 -11.10032,-12.64788 l -3.23174,-0.99852 2.95072,-1.55325 c 3.65327,-1.88609 8.00909,-2.88461 12.36492,-2.88461 12.50542,0 22.76268,8.09909 22.76268,17.97332 0,10.09612 -10.25726,18.1952 -22.76268,18.1952 z m -7.58756,-3.99407 c 2.38867,0.77663 4.91786,1.22041 7.44705,1.22041 10.67879,0 19.24992,-6.76773 19.24992,-15.19965 0,-8.43193 -8.57113,-15.19966 -19.24992,-15.19966 -2.52919,0 -5.05838,0.44379 -7.44705,1.22041 6.18245,2.88461 10.11674,8.21004 10.11674,13.97925 0.14051,5.76921 -3.93429,11.09464 -10.11674,13.97924 z"
       id="path4704" />
    <path
       style="fill:#444444;stroke-width:1.248564"
       inkscape:connector-curvature="0"
       d="m -301.29215,-284.58303 c -12.50543,0 -22.76268,-8.09909 -22.76268,-17.97332 0,-9.87423 10.25725,-17.97331 22.76268,-17.97331 12.50543,0 22.76269,8.09908 22.76269,17.97331 0,9.98518 -10.25726,17.97332 -22.76269,17.97332 z m 0,-33.17297 c -10.67879,0 -19.24992,6.76773 -19.24992,15.19965 0,8.43193 8.57113,15.19966 19.24992,15.19966 10.67879,0 19.24993,-6.76773 19.24993,-15.19966 0,-8.32098 -8.71165,-15.19965 -19.24993,-15.19965 z"
       id="path4706" />
    <path
       style="fill:#444444;stroke-width:1.248564"
       inkscape:connector-curvature="0"
       d="m -437.86826,298.10735 -12.78644,-10.09612 -12.78645,10.09612 c -3.51276,2.77366 -5.3394,6.43489 -5.3394,10.31802 0,3.88312 1.96715,7.54435 5.3394,10.31801 3.37225,2.66271 7.86858,4.21596 12.78645,4.21596 v 0 0 c 4.77735,-0.11094 9.27368,-1.55325 12.78644,-4.21596 3.51276,-2.77366 5.3394,-6.43489 5.3394,-10.31801 0,-3.88313 -1.82664,-7.54436 -5.3394,-10.31802 z m -2.52919,18.639 c -2.66969,2.10798 -6.32296,3.32839 -10.25725,3.43933 -3.9343,0 -7.58757,-1.22041 -10.25726,-3.43933 -2.81021,-2.21893 -4.35583,-5.21448 -4.35583,-8.32098 0,-3.1065 1.54562,-6.10205 4.35583,-8.32098 l 10.25726,-8.09909 10.25725,8.09909 c 2.81021,2.21893 4.35583,5.21448 4.35583,8.32098 0,3.1065 -1.54562,6.10205 -4.35583,8.32098 z"
       id="path4708" />
    <g
       id="g4714"
       transform="matrix(1.405104,0,0,1.1094638,-582.45346,-432.14172)">
	<circle
   style="fill:#444444"
   cx="93.800003"
   cy="527.79999"
   r="7.1999998"
   id="circle4710" />

	<path
   style="fill:#444444"
   inkscape:connector-curvature="0"
   d="m 115.2,526.6 h -8.8 c -0.3,-2.6 -1.3,-4.9 -2.8,-6.8 l 4.5,-4.5 c 0.5,-0.5 0.5,-1.3 0,-1.8 -0.5,-0.5 -1.3,-0.5 -1.8,0 l -4.5,4.5 c -1.9,-1.6 -4.2,-2.6 -6.8,-2.8 v -8.8 c 0,-0.7 -0.6,-1.2 -1.2,-1.2 -0.6,0 -1.2,0.6 -1.2,1.2 v 8.8 c -2.6,0.3 -4.9,1.3 -6.8,2.8 l -4.5,-4.5 c -0.5,-0.5 -1.3,-0.5 -1.8,0 -0.5,0.5 -0.5,1.3 0,1.8 l 4.5,4.5 c -1.6,1.9 -2.6,4.2 -2.8,6.8 h -8.8 c -0.7,0 -1.2,0.6 -1.2,1.2 0,0.7 0.6,1.2 1.2,1.2 h 8.8 c 0.3,2.6 1.3,4.9 2.8,6.8 l -4.5,4.5 c -0.5,0.5 -0.5,1.3 0,1.8 0.2,0.2 0.6,0.4 0.9,0.4 0.3,0 0.6,-0.1 0.9,-0.4 l 4.5,-4.5 c 1.9,1.6 4.2,2.6 6.8,2.8 v 8.8 c 0,0.7 0.6,1.2 1.2,1.2 0.6,0 1.2,-0.6 1.2,-1.2 v -8.8 c 2.6,-0.3 4.9,-1.3 6.8,-2.8 l 4.5,4.5 c 0.2,0.2 0.6,0.4 0.9,0.4 0.3,0 0.6,-0.1 0.9,-0.4 0.5,-0.5 0.5,-1.3 0,-1.8 l -4.5,-4.5 c 1.6,-1.9 2.6,-4.2 2.8,-6.8 h 8.8 c 0.7,0 1.2,-0.6 1.2,-1.2 0.1,-0.7 -0.5,-1.2 -1.2,-1.2 z M 93.8,538 c -5.6,0 -10.2,-4.6 -10.2,-10.2 0,-5.6 4.6,-10.2 10.2,-10.2 5.6,0 10.2,4.6 10.2,10.2 0,5.7 -4.5,10.2 -10.2,10.2 z"
   id="path4712" />

</g>
    <g
       id="g4734"
       transform="matrix(1.405104,0,0,1.1094638,-582.45346,-432.14172)">
	<path
   style="fill:#444444"
   inkscape:connector-curvature="0"
   d="m 78.7,405.2 c -0.7,0 -1.2,0.6 -1.2,1.2 v 8 c 0,0.7 0.6,1.2 1.2,1.2 0.6,0 1.2,-0.6 1.2,-1.2 v -8 c 0.1,-0.6 -0.5,-1.2 -1.2,-1.2 z"
   id="path4716" />

	<path
   style="fill:#444444"
   inkscape:connector-curvature="0"
   d="m 89.6,405.2 c -0.7,0 -1.2,0.6 -1.2,1.2 v 8 c 0,0.7 0.6,1.2 1.2,1.2 0.7,0 1.2,-0.6 1.2,-1.2 v -8 c 0,-0.6 -0.6,-1.2 -1.2,-1.2 z"
   id="path4718" />

	<path
   style="fill:#444444"
   inkscape:connector-curvature="0"
   d="m 100.4,405.2 c -0.7,0 -1.2,0.6 -1.2,1.2 v 2 c 0,0.7 0.6,1.2 1.2,1.2 0.6,0 1.2,-0.6 1.2,-1.2 v -2 c 0,-0.6 -0.5,-1.2 -1.2,-1.2 z"
   id="path4720" />

	<path
   style="fill:#444444"
   inkscape:connector-curvature="0"
   d="m 100.4,410.7 c -0.7,0 -1.2,0.6 -1.2,1.3 0,0.7 0.6,1.2 1.2,1.2 0.6,0 1.2,-0.6 1.2,-1.2 v 0 c 0,-0.8 -0.5,-1.3 -1.2,-1.3 z"
   id="path4722" />

	<path
   style="fill:#444444"
   inkscape:connector-curvature="0"
   d="m 84.1,405.2 c -0.7,0 -1.2,0.6 -1.2,1.2 v 2 c 0,0.7 0.6,1.2 1.2,1.2 0.7,0 1.2,-0.6 1.2,-1.2 v -2 c 0.1,-0.6 -0.5,-1.2 -1.2,-1.2 z"
   id="path4724" />

	<path
   style="fill:#444444"
   inkscape:connector-curvature="0"
   d="m 84.1,410.7 c -0.7,0 -1.2,0.6 -1.2,1.3 0,0.7 0.6,1.2 1.2,1.2 0.7,0 1.2,-0.6 1.2,-1.2 v 0 c 0.1,-0.8 -0.5,-1.3 -1.2,-1.3 z"
   id="path4726" />

	<path
   style="fill:#444444"
   inkscape:connector-curvature="0"
   d="m 105.8,405.2 c -0.7,0 -1.2,0.6 -1.2,1.2 v 4 c 0,0.7 0.6,1.2 1.2,1.2 0.6,0 1.2,-0.6 1.2,-1.2 v -4 c 0,-0.6 -0.5,-1.2 -1.2,-1.2 z"
   id="path4728" />

	<path
   style="fill:#444444"
   inkscape:connector-curvature="0"
   d="m 95,405.2 c -0.7,0 -1.2,0.6 -1.2,1.2 v 4 c 0,0.7 0.6,1.2 1.2,1.2 0.7,0 1.2,-0.6 1.2,-1.2 v -4 c 0,-0.6 -0.5,-1.2 -1.2,-1.2 z"
   id="path4730" />

	<path
   style="fill:#444444"
   inkscape:connector-curvature="0"
   d="m 118.6,378 h -4.5 c -0.2,-1.2 -0.7,-2.3 -1.3,-3.2 l 2.2,-2.2 c 0.5,-0.5 0.5,-1.3 0,-1.8 -0.5,-0.5 -1.3,-0.5 -1.8,0 L 111,373 c -0.9,-0.7 -2,-1.1 -3.2,-1.3 v -4.5 c 0,-0.7 -0.6,-1.2 -1.2,-1.2 -0.6,0 -1.2,0.6 -1.2,1.2 v 4.5 c -1.2,0.2 -2.3,0.7 -3.2,1.3 l -2.2,-2.2 c -0.5,-0.5 -1.3,-0.5 -1.8,0 -0.5,0.5 -0.5,1.3 0,1.8 l 2.2,2.2 c -0.5,0.7 -0.9,1.5 -1.2,2.4 -0.9,0.2 -1.8,0.5 -2.6,0.9 -2.1,-3.1 -5.6,-4.9 -9.4,-4.9 -6.3,0 -11.5,5.1 -11.5,11.5 0,0.6 0.1,1.3 0.2,1.9 -4.4,0.2 -8,3.9 -8,8.3 0,4.6 3.7,8.4 8.4,8.4 h 30.6 c 4.6,0 8.4,-3.7 8.4,-8.4 0,-3.5 -2.2,-6.6 -5.4,-7.8 0,-0.3 0,-0.5 0,-0.8 0.5,-0.2 0.9,-0.5 1.3,-0.7 l 2.2,2.2 c 0.2,0.2 0.6,0.4 0.9,0.4 0.3,0 0.6,-0.1 0.9,-0.4 0.5,-0.5 0.5,-1.3 0,-1.8 l -2.2,-2.2 c 0.7,-0.9 1.1,-2 1.3,-3.2 h 4.5 c 0.7,0 1.2,-0.6 1.2,-1.2 0,-0.6 -0.7,-1.4 -1.4,-1.4 z m -6,16.9 c 0,3.2 -2.6,5.9 -5.9,5.9 H 76.1 c -3.2,0 -5.9,-2.6 -5.9,-5.9 0,-3.2 2.6,-5.9 5.9,-5.9 H 79 l -0.5,-1.6 c -0.3,-0.9 -0.4,-1.8 -0.4,-2.7 0,-4.9 4,-9 9,-9 3.3,0 6.4,1.8 7.9,4.8 l 0.7,1.3 1.2,-0.9 c 0.6,-0.5 1.3,-0.8 2,-1 0.6,-0.2 1.2,-0.3 1.9,-0.3 0.2,0 0.4,0 0.6,0 2.7,0.3 5,2.2 5.6,4.8 0.1,0.5 0.2,1.1 0.2,1.6 0,0.3 0,0.6 -0.1,0.9 0,0.2 -0.1,0.5 -0.1,0.7 l -0.3,1.3 1.3,0.3 c 2.7,0.5 4.6,3 4.6,5.7 z m -3.2,-11.3 c -1,-3.4 -3.9,-6 -7.6,-6.5 0.8,-1.8 2.6,-3 4.7,-3 2.9,0 5.2,2.3 5.2,5.2 0.1,1.8 -0.9,3.4 -2.3,4.3 z"
   id="path4732" />

</g>
    <path
       style="fill:#444444;stroke-width:1.248564"
       inkscape:connector-curvature="0"
       d="m -415.80813,-157.88227 h -6.32296 c -0.28102,-1.33136 -0.98358,-2.55177 -1.82664,-3.55028 l 3.09123,-2.44082 c 0.70255,-0.55474 0.70255,-1.44231 0,-1.99704 -0.70255,-0.55473 -1.82664,-0.55473 -2.52919,0 l -3.09123,2.44082 c -1.26459,-0.77662 -2.8102,-1.22041 -4.49633,-1.4423 v -4.99259 c 0,-0.77662 -0.84306,-1.33135 -1.68612,-1.33135 -0.84307,0 -1.68613,0.66567 -1.68613,1.33135 v 4.99259 c -1.68612,0.22189 -3.23174,0.77662 -4.49633,1.4423 l -3.09123,-2.44082 c -0.70255,-0.55473 -1.82664,-0.55473 -2.52919,0 -0.70255,0.55473 -0.70255,1.4423 0,1.99704 l 3.09123,2.44082 c -0.70255,0.77662 -1.26459,1.66419 -1.68612,2.66271 -1.2646,0.22189 -2.52919,0.55473 -3.65327,0.99852 -2.95072,-3.43934 -7.86859,-5.43637 -13.20798,-5.43637 -8.85216,0 -16.1587,5.65826 -16.1587,12.75883 0,0.66568 0.14051,1.4423 0.28102,2.10798 -6.18245,0.22189 -11.24083,4.32691 -11.24083,9.20855 0,5.10353 5.19889,9.3195 11.80288,9.3195 h 42.99618 c 6.46348,0 11.80287,-4.10502 11.80287,-9.3195 0,-3.88312 -3.09123,-7.32246 -7.58756,-8.65382 0,-0.33284 0,-0.55473 0,-0.88757 0.70255,-0.22189 1.26459,-0.55473 1.82663,-0.77662 l 3.09123,2.44082 c 0.28102,0.22189 0.84307,0.44378 1.2646,0.44378 0.42153,0 0.84306,-0.11094 1.26459,-0.44378 0.70255,-0.55474 0.70255,-1.44231 0,-1.99704 l -3.09123,-2.44082 c 0.98357,-0.99852 1.54562,-2.21893 1.82664,-3.55028 h 6.32297 c 0.98357,0 1.68612,-0.66568 1.68612,-1.33136 -0.14051,-0.88757 -0.98357,-1.55325 -1.96715,-1.55325 z m -8.43062,18.74994 c 0,3.55028 -3.65327,6.54584 -8.29011,6.54584 h -42.99619 c -4.49633,0 -8.29011,-2.88461 -8.29011,-6.54584 0,-3.55028 3.65327,-6.54584 8.29011,-6.54584 h 4.07481 l -0.70256,-1.77514 c -0.42153,-0.99852 -0.56204,-1.99703 -0.56204,-2.99555 0,-5.43637 5.62042,-9.98518 12.64594,-9.98518 4.63684,0 8.99266,1.99704 11.10032,5.32543 l 0.98357,1.4423 1.68613,-0.99851 c 0.84306,-0.55474 1.82663,-0.88757 2.81021,-1.10947 0.84306,-0.22189 1.68612,-0.33284 2.66969,-0.33284 0.28102,0 0.56204,0 0.84307,0 3.79378,0.33284 7.02552,2.44082 7.86858,5.32543 0.14051,0.55473 0.28102,1.22041 0.28102,1.77514 0,0.33284 0,0.66568 -0.14051,0.99852 0,0.22189 -0.14051,0.55473 -0.14051,0.77662 l -0.42153,1.44231 1.82663,0.33284 c 3.79378,0.55473 6.46348,3.32839 6.46348,6.32394 z m -4.49633,-12.53694 c -1.40511,-3.77218 -5.47991,-6.65678 -10.67879,-7.21152 1.12408,-1.99703 3.65327,-3.32839 6.60399,-3.32839 4.0748,0 7.30654,2.55177 7.30654,5.76921 0.14051,1.99704 -1.2646,3.77218 -3.23174,4.7707 z"
       id="path4736" />
    <path
       style="fill:#444444;stroke-width:1.248564"
       inkscape:connector-curvature="0"
       d="m -420.58548,-303.8877 h -12.36491 c -0.42154,-2.88461 -1.82664,-5.43638 -3.9343,-7.54436 l 6.32297,-4.99259 c 0.70255,-0.55473 0.70255,-1.4423 0,-1.99703 -0.70255,-0.55473 -1.82663,-0.55473 -2.52918,0 l -6.32297,4.99259 c -2.6697,-1.77515 -5.90144,-2.88461 -9.55471,-3.1065 v -9.76328 c 0,-0.77663 -0.84306,-1.33136 -1.68612,-1.33136 -0.84307,0 -1.68613,0.66568 -1.68613,1.33136 v 9.76328 c -3.65327,0.33284 -6.88501,1.4423 -9.55471,3.1065 l -6.32296,-4.99259 c -0.70256,-0.55473 -1.82664,-0.55473 -2.52919,0 -0.70255,0.55473 -0.70255,1.4423 0,1.99703 l 6.32297,4.99259 c -2.24817,2.10798 -3.65327,4.65975 -3.9343,7.54436 h -12.36491 c -0.98357,0 -1.68613,0.66567 -1.68613,1.33135 0,0.77663 0.84307,1.33136 1.68613,1.33136 h 12.36491 c 0.42154,2.8846 1.82664,5.43637 3.9343,7.54435 l -6.32297,4.99259 c -0.70255,0.55473 -0.70255,1.4423 0,1.99703 0.28102,0.2219 0.84306,0.44379 1.26459,0.44379 0.42153,0 0.84306,-0.11095 1.2646,-0.44379 l 6.32296,-4.99258 c 2.6697,1.77514 5.90144,2.8846 9.55471,3.1065 v 9.76328 c 0,0.77662 0.84306,1.33135 1.68613,1.33135 0.84306,0 1.68612,-0.66567 1.68612,-1.33135 v -9.76328 c 3.65327,-0.33284 6.88501,-1.44231 9.55471,-3.1065 l 6.32297,4.99258 c 0.28102,0.2219 0.84306,0.44379 1.26459,0.44379 0.42153,0 0.84306,-0.11095 1.26459,-0.44379 0.70255,-0.55473 0.70255,-1.4423 0,-1.99703 l -6.32297,-4.99259 c 2.24817,-2.10798 3.65327,-4.65975 3.9343,-7.54435 h 12.36491 c 0.98357,0 1.68613,-0.66568 1.68613,-1.33136 0.14051,-0.77662 -0.70256,-1.33135 -1.68613,-1.33135 z m -30.06922,12.64788 c -7.86859,0 -14.33207,-5.10353 -14.33207,-11.31653 0,-6.213 6.46348,-11.31653 14.33207,-11.31653 7.86858,0 14.33206,5.10353 14.33206,11.31653 0,6.213 -6.32297,11.31653 -14.33206,11.31653 z"
       id="path4738" />
  </g>
</svg>
