<?xml version="1.0" encoding="UTF-8" standalone="no"?>
<!-- Created with Inkscape (http://www.inkscape.org/) -->

<svg
   xmlns:dc="http://purl.org/dc/elements/1.1/"
   xmlns:cc="http://creativecommons.org/ns#"
   xmlns:rdf="http://www.w3.org/1999/02/22-rdf-syntax-ns#"
   xmlns:svg="http://www.w3.org/2000/svg"
   xmlns="http://www.w3.org/2000/svg"
   xmlns:sodipodi="http://sodipodi.sourceforge.net/DTD/sodipodi-0.dtd"
   xmlns:inkscape="http://www.inkscape.org/namespaces/inkscape"
   width="67.21666mm"
   height="36.168518mm"
   viewBox="0 0 67.216659 36.168516"
   version="1.1"
   id="svg4977"
   sodipodi:docname="drawing17.svg"
   inkscape:version="0.92.3 (2405546, 2018-03-11)">
  <defs
     id="defs4971" />
  <sodipodi:namedview
     id="base"
     pagecolor="#ffffff"
     bordercolor="#666666"
     borderopacity="1.0"
     inkscape:pageopacity="0.0"
     inkscape:pageshadow="2"
     inkscape:zoom="0.35"
     inkscape:cx="-207.41636"
     inkscape:cy="306.22249"
     inkscape:document-units="mm"
     inkscape:current-layer="layer1"
     showgrid="false"
     inkscape:window-width="1920"
     inkscape:window-height="1017"
     inkscape:window-x="2552"
     inkscape:window-y="352"
     inkscape:window-maximized="1"
     fit-margin-top="0"
     fit-margin-left="0"
     fit-margin-right="0"
     fit-margin-bottom="0" />
  <metadata
     id="metadata4974">
    <rdf:RDF>
      <cc:Work
         rdf:about="">
        <dc:format>image/svg+xml</dc:format>
        <dc:type
           rdf:resource="http://purl.org/dc/dcmitype/StillImage" />
        <dc:title></dc:title>
      </cc:Work>
    </rdf:RDF>
  </metadata>
  <g
     inkscape:label="Layer 1"
     inkscape:groupmode="layer"
     id="layer1"
     transform="translate(-184.96967,-186.54187)">
    <g
       id="g4700"
       transform="matrix(1.405104,0,0,1.1094638,-62.556963,-381.2817)">
      <path
         style="fill:#444444"
         inkscape:connector-curvature="0"
         d="m 207.8,511.8 c -3.1,0 -6.1,0.9 -8.8,2.6 l -2.1,1.4 2.3,0.9 c 4.8,1.8 7.9,6.3 7.9,11.4 0,5.1 -3.2,9.6 -7.9,11.4 l -2.3,0.9 2.1,1.4 c 2.6,1.7 5.7,2.6 8.8,2.6 8.9,0 16.2,-7.3 16.2,-16.2 0,-9.1 -7.3,-16.4 -16.2,-16.4 z m 0,29.9 c -1.8,0 -3.6,-0.4 -5.3,-1.1 4.4,-2.6 7.2,-7.4 7.2,-12.6 0,-5.2 -2.8,-10 -7.2,-12.6 1.7,-0.7 3.5,-1.1 5.3,-1.1 7.6,0 13.7,6.1 13.7,13.7 0,7.6 -6.1,13.7 -13.7,13.7 z"
         id="path4694" />
      <path
         style="fill:#444444"
         inkscape:connector-curvature="0"
         d="m 196.4,528.2 1.8,-1.7 c 0.3,-0.3 0.5,-0.8 0.3,-1.3 -0.1,-0.5 -0.5,-0.8 -1,-0.9 l -2.5,-0.3 -1.1,-2.2 c -0.2,-0.4 -0.6,-0.7 -1.1,-0.7 -0.5,0 -0.9,0.3 -1.1,0.7 l -1.1,2.2 -2.4,0.4 c -0.5,0.1 -0.9,0.4 -1,0.9 -0.1,0.5 0,1 0.3,1.3 l 1.8,1.7 -0.4,2.4 c -0.1,0.5 0.1,0.9 0.5,1.2 0.4,0.3 0.9,0.3 1.3,0.1 l 2.2,-1.1 2.2,1.1 c 0.2,0.1 0.4,0.1 0.6,0.1 0.3,0 0.5,-0.1 0.7,-0.2 0.4,-0.3 0.6,-0.8 0.5,-1.2 z m -2.2,-1.3 c -0.3,0.3 -0.4,0.7 -0.4,1.1 l 0.1,0.6 -0.5,-0.3 c -0.2,-0.1 -0.4,-0.1 -0.6,-0.1 -0.2,0 -0.4,0 -0.6,0.1 l -0.5,0.3 0.1,-0.6 c 0.1,-0.4 -0.1,-0.8 -0.4,-1.1 l -0.4,-0.4 0.6,-0.1 c 0.4,-0.1 0.8,-0.3 0.9,-0.7 l 0.3,-0.5 0.3,0.5 c 0.2,0.4 0.5,0.6 0.9,0.7 l 0.6,0.1 z"
         id="path4696" />
      <path
         style="fill:#444444"
         inkscape:connector-curvature="0"
         d="m 183.8,533.3 -1.5,-0.2 -0.7,-1.4 c -0.2,-0.4 -0.6,-0.7 -1.1,-0.7 -0.5,0 -0.9,0.3 -1.1,0.7 l -0.7,1.4 -1.5,0.2 c -0.5,0.1 -0.9,0.4 -1,0.9 -0.1,0.5 0,0.9 0.3,1.3 l 1.1,1.1 -0.3,1.5 c -0.1,0.5 0.1,0.9 0.5,1.2 0.4,0.3 0.9,0.3 1.3,0.1 l 1.3,-0.7 1.3,0.7 c 0.2,0.1 0.4,0.1 0.6,0.1 0.3,0 0.5,-0.1 0.7,-0.2 0.4,-0.3 0.6,-0.8 0.5,-1.2 l -0.3,-1.5 1.1,-1.1 c 0.3,-0.3 0.5,-0.8 0.3,-1.3 0,-0.5 -0.3,-0.8 -0.8,-0.9 z m -3,2.7 c -0.1,0 -0.2,0 -0.3,0 -0.1,0 -0.2,0 -0.3,0 0,-0.2 -0.1,-0.4 -0.2,-0.6 0.2,-0.1 0.4,-0.2 0.5,-0.4 0.1,0.2 0.3,0.3 0.5,0.4 -0.1,0.2 -0.2,0.4 -0.2,0.6 z"
         id="path4698" />
    </g>
  </g>
</svg>
