<?xml version="1.0" encoding="UTF-8" standalone="no"?>
<!-- Created with Inkscape (http://www.inkscape.org/) -->

<svg
   xmlns:dc="http://purl.org/dc/elements/1.1/"
   xmlns:cc="http://creativecommons.org/ns#"
   xmlns:rdf="http://www.w3.org/1999/02/22-rdf-syntax-ns#"
   xmlns:svg="http://www.w3.org/2000/svg"
   xmlns="http://www.w3.org/2000/svg"
   xmlns:sodipodi="http://sodipodi.sourceforge.net/DTD/sodipodi-0.dtd"
   xmlns:inkscape="http://www.inkscape.org/namespaces/inkscape"
   width="69.271629mm"
   height="35.502838mm"
   viewBox="0 0 69.271629 35.502837"
   version="1.1"
   id="svg4977"
   sodipodi:docname="drawing13.svg"
   inkscape:version="0.92.3 (2405546, 2018-03-11)">
  <defs
     id="defs4971" />
  <sodipodi:namedview
     id="base"
     pagecolor="#ffffff"
     bordercolor="#666666"
     borderopacity="1.0"
     inkscape:pageopacity="0.0"
     inkscape:pageshadow="2"
     inkscape:zoom="0.35"
     inkscape:cx="-201.78416"
     inkscape:cy="629.94006"
     inkscape:document-units="mm"
     inkscape:current-layer="layer1"
     showgrid="false"
     inkscape:window-width="1920"
     inkscape:window-height="1017"
     inkscape:window-x="2552"
     inkscape:window-y="352"
     inkscape:window-maximized="1"
     fit-margin-top="0"
     fit-margin-left="0"
     fit-margin-right="0"
     fit-margin-bottom="0" />
  <metadata
     id="metadata4974">
    <rdf:RDF>
      <cc:Work
         rdf:about="">
        <dc:format>image/svg+xml</dc:format>
        <dc:type
           rdf:resource="http://purl.org/dc/dcmitype/StillImage" />
        <dc:title></dc:title>
      </cc:Work>
    </rdf:RDF>
  </metadata>
  <g
     inkscape:label="Layer 1"
     inkscape:groupmode="layer"
     id="layer1"
     transform="translate(-183.47948,-272.85784)">
    <path
       style="fill:#444444;stroke-width:1.248564"
       inkscape:connector-curvature="0"
       d="m 252.75111,285.50573 c 0,-6.98962 -7.16603,-12.64789 -16.01818,-12.64789 -3.37225,0 -8.29012,1.6642 -8.29012,1.6642 0,0 10.53828,1.66419 12.50543,10.09612 -2.10766,-3.21745 -6.32297,-5.43638 -11.24083,-5.43638 -2.10766,0 -4.07481,0.44379 -5.90144,1.22041 -2.95072,-3.43933 -7.86858,-5.43637 -13.20798,-5.43637 -8.85215,0 -16.15869,5.65827 -16.15869,12.75884 0,0.66567 0.14051,1.4423 0.28102,2.10798 -6.18246,0.22189 -11.24084,4.32691 -11.24084,9.20855 0,5.10353 5.19889,9.31949 11.80288,9.31949 h 42.99618 c 6.46348,0 11.80287,-4.10501 11.80287,-9.31949 0,-1.6642 -0.56204,-3.21745 -1.54561,-4.65975 2.52919,-2.44082 4.21531,-5.54732 4.21531,-8.87571 z m -14.61308,-9.87423 c 6.18246,0.55473 11.10032,4.77069 11.10032,9.87423 0,2.55176 -1.26459,4.88164 -3.23174,6.65678 -0.28102,-0.22189 -0.56204,-0.33284 -0.84306,-0.55473 -0.70255,-0.33284 -1.4051,-0.66568 -2.10766,-0.99852 0.98358,-1.55325 1.40511,-3.32839 1.40511,-5.10353 0.14051,-4.10502 -2.38868,-7.6553 -6.32297,-9.87423 z m 0,29.73363 h -42.99618 c -4.49633,0 -8.29012,-2.88461 -8.29012,-6.54584 0,-3.55028 3.65327,-6.54583 8.29012,-6.54583 h 4.0748 l -0.70255,-1.77515 c -0.42153,-0.99851 -0.56204,-1.99703 -0.56204,-2.99555 0,-5.43637 5.62041,-9.98517 12.64593,-9.98517 4.63685,0 8.99267,1.99703 11.10032,5.32542 l 0.98358,1.44231 1.68612,-0.99852 c 1.54562,-0.99852 3.51276,-1.4423 5.47991,-1.4423 5.05837,0 9.13317,3.21744 9.13317,7.21151 0,0.33284 0,0.66568 -0.14051,0.99852 0,0.22189 -0.14051,0.55473 -0.14051,0.77662 l -0.42153,1.44231 1.82664,0.33284 c 0.14051,0 0.42153,0.11094 0.56204,0.11094 0.42153,0.11095 0.98357,0.2219 1.4051,0.44379 1.12408,0.44378 2.24817,1.10946 2.95072,1.99703 0.98357,1.10947 1.54561,2.44082 1.54561,3.77218 -0.28102,3.55028 -3.93429,6.43489 -8.43062,6.43489 z"
       id="path4682" />
  </g>
</svg>
